<?xml version="1.0" standalone="no"?>
<!DOCTYPE svg PUBLIC "-//W3C//DTD SVG 20010904//EN"
 "http://www.w3.org/TR/2001/REC-SVG-20010904/DTD/svg10.dtd">
<svg version="1.0" xmlns="http://www.w3.org/2000/svg"
 width="1134.000000pt" height="1134.000000pt" viewBox="0 0 1134.000000 1134.000000"
 preserveAspectRatio="xMidYMid meet">
<metadata>
Created by potrace 1.11, written by Peter Selinger 2001-2013
</metadata>
<g transform="translate(0.000000,1134.000000) scale(0.100000,-0.100000)"
fill="#000000" stroke="none">
<path d="M3616 10783 c-49 -164 -91 -303 -95 -309 -4 -8 -83 11 -251 61 -135
41 -246 73 -246 72 -2 -2 -122 -405 -140 -469 -3 -10 -11 -18 -18 -18 -7 0
-147 40 -311 90 -165 49 -301 88 -303 86 -2 -2 -37 -116 -78 -253 -41 -136
-76 -253 -78 -259 -4 -9 151 -59 567 -181 28 -9 47 -20 47 -29 0 -19 -1630
-5477 -1639 -5486 -3 -3 -145 36 -314 87 -203 61 -310 89 -313 81 -32 -88
-150 -512 -143 -516 5 -4 143 -46 307 -95 163 -49 299 -90 301 -92 3 -2 -28
-114 -69 -248 -40 -135 -71 -247 -69 -249 2 -1 108 -33 236 -71 128 -37 237
-71 243 -75 7 -4 -21 -111 -80 -308 -49 -166 -90 -306 -90 -311 0 -8 518 -167
523 -160 2 2 43 139 92 304 49 165 91 303 95 307 5 7 5487 -1626 5499 -1637 2
-3 -42 -159 -98 -346 -56 -188 -100 -343 -99 -344 5 -5 506 -155 516 -155 5 0
55 155 112 344 l103 344 46 -14 c25 -7 136 -40 246 -73 109 -33 202 -56 205
-51 3 5 36 115 75 244 38 130 74 236 81 236 6 0 145 -40 310 -90 164 -49 301
-86 305 -82 7 7 160 515 156 518 -1 1 -385 117 -599 180 -10 3 -18 10 -18 16
0 13 1630 5469 1639 5484 4 8 102 -17 316 -81 170 -52 310 -93 311 -92 0 1 35
119 78 261 51 170 74 261 67 266 -6 3 -145 46 -309 95 -163 49 -298 90 -300
91 -2 1 28 110 67 241 39 131 71 243 71 248 0 6 -106 41 -234 79 -129 38 -239
72 -245 75 -6 4 21 108 70 271 43 146 81 270 83 276 6 15 -512 170 -524 158
-4 -5 -43 -126 -85 -269 -42 -143 -80 -263 -84 -267 -6 -7 -5487 1625 -5499
1636 -2 2 38 142 88 311 51 168 90 309 87 311 -7 7 -497 154 -512 154 -6 0
-50 -130 -99 -297z m-327 -377 c100 -30 185 -57 188 -60 7 -6 -95 -356 -107
-369 -12 -13 -375 99 -374 115 1 13 105 368 108 368 1 0 84 -24 185 -54z
m3481 -1041 c1504 -449 2738 -819 2741 -821 4 -2 -19 -89 -51 -193 l-57 -188
261 -78 c144 -43 262 -79 264 -80 3 -3 -148 -516 -154 -524 -3 -3 -516 148
-523 154 -2 2 31 119 74 261 42 141 73 260 68 264 -4 5 -1239 376 -2743 825
-1504 450 -2738 820 -2742 824 -11 10 104 383 116 378 6 -2 1242 -372 2746
-822z m-3127 519 c139 -42 253 -77 254 -78 5 -5 -156 -521 -163 -521 -5 0
-123 34 -261 75 -168 50 -253 80 -253 88 0 13 33 127 121 415 16 53 34 97 40
97 6 0 124 -34 262 -76z m-624 -388 c100 -30 185 -56 188 -59 2 -3 -365 -1242
-816 -2753 -452 -1510 -820 -2748 -818 -2750 2 -3 119 -39 260 -81 142 -42
257 -82 257 -87 0 -15 -147 -506 -153 -512 -3 -3 -121 29 -262 71 -141 43
-260 73 -264 69 -4 -5 -21 -56 -38 -114 -68 -228 -75 -250 -86 -250 -30 0
-367 106 -367 116 0 25 109 369 117 368 4 -1 88 -25 186 -54 99 -29 182 -48
187 -44 4 5 41 123 83 262 73 249 74 254 53 261 -11 4 -96 30 -188 57 -93 27
-168 52 -168 56 0 14 1640 5498 1644 5498 1 0 84 -24 185 -54z m3484 -1041
c1505 -450 2737 -823 2737 -829 0 -15 -1632 -5479 -1639 -5488 -5 -6 -5489
1627 -5500 1638 -2 2 359 1217 802 2701 444 1484 814 2722 823 2751 9 33 20
52 27 49 7 -2 1244 -372 2750 -822z m3733 -125 c93 -28 174 -53 180 -55 8 -2
-7 -65 -43 -187 -30 -101 -58 -186 -62 -189 -3 -4 -71 13 -151 37 -80 24 -162
49 -182 54 -22 6 -38 17 -38 25 0 35 104 365 115 365 7 0 88 -23 181 -50z
m-264 -912 c98 -29 178 -57 178 -63 0 -15 -1632 -5479 -1640 -5488 -3 -4 -89
17 -191 47 -101 31 -187 52 -190 48 -4 -4 -40 -119 -80 -256 -40 -136 -78
-250 -84 -253 -20 -7 -510 144 -512 159 -3 12 140 505 149 513 2 2 120 -32
263 -75 229 -69 261 -76 267 -62 5 12 1502 5015 1634 5465 3 9 11 17 17 17 7
0 92 -24 189 -52z m-5279 -4994 c1503 -449 2736 -820 2740 -824 7 -6 -94 -364
-105 -376 -2 -1 -1230 364 -2728 812 -1499 448 -2735 817 -2747 820 -13 4 -23
11 -23 18 0 6 24 91 52 188 34 114 58 178 66 178 7 0 1243 -367 2745 -816z
m3470 -1038 c98 -29 180 -56 183 -59 5 -5 -100 -365 -109 -374 -5 -4 -365 102
-374 111 -8 7 105 376 115 376 4 0 87 -24 185 -54z"/>
<path d="M3796 9159 c-39 -114 -1588 -5320 -1584 -5324 12 -12 5323 -1594
5329 -1587 4 4 363 1200 798 2657 436 1458 793 2655 795 2660 2 6 -1116 346
-2653 805 -1461 436 -2662 795 -2668 798 -7 2 -15 -2 -17 -9z m1602 -630 c812
-243 1478 -443 1480 -444 6 -5 -698 -1450 -708 -1453 -15 -5 -13 3 25 85 58
125 44 183 -54 232 -158 80 -1083 511 -1097 511 -8 0 -400 -108 -871 -240
-471 -132 -858 -239 -859 -237 -5 5 591 1987 598 1987 5 0 673 -199 1486 -441z
m2600 -778 c513 -153 935 -281 937 -283 4 -4 -870 -2936 -878 -2944 -8 -8
-1527 711 -1527 724 0 17 -3 18 106 -33 123 -57 169 -60 218 -12 25 24 104
177 305 594 149 309 271 571 271 582 0 15 -394 1571 -416 1645 -5 16 -2 18 22
13 16 -3 449 -132 962 -286z m-3993 -1200 c374 -176 681 -325 683 -331 5 -14
-18 -12 -48 5 -14 8 -46 14 -72 15 -38 0 -54 -5 -78 -27 -22 -20 -109 -190
-305 -596 -151 -312 -275 -575 -275 -585 0 -9 95 -387 211 -840 115 -453 209
-825 207 -826 -4 -3 -1918 570 -1922 575 -2 2 120 416 270 919 676 2260 605
2029 628 2020 12 -5 327 -153 701 -329z m1185 -1761 c0 -6 -18 -46 -40 -90
-47 -93 -51 -140 -17 -190 19 -29 94 -67 592 -301 l570 -268 865 243 c476 134
866 242 868 241 3 -2 -588 -1978 -593 -1984 -4 -3 -2964 876 -2973 884 -5 5
711 1475 719 1475 5 0 9 -5 9 -10z"/>
</g>
</svg>
