<!--?xml version="1.0" encoding="utf-8"?-->
<!-- Generator: Adobe Illustrator 18.1.1, SVG Export Plug-In . SVG Version: 6.00 Build 0)  -->

<svg version="1.1" id="_x32_" xmlns="http://www.w3.org/2000/svg" xmlns:xlink="http://www.w3.org/1999/xlink" x="0px" y="0px" viewBox="0 0 512 512" style="width: 512px; height: 512px; opacity: 1;" xml:space="preserve" fill-opacity="0.7">
<style type="text/css">
	.st0{fill:#4B4B4B;}
</style>
<g>
	<path class="st0" d="M472.464,216.464h-99.822c-17.45,0-31.577-14.14-31.577-31.577c0-17.444,14.126-31.583,31.577-31.583h36.687
		c21.829,0,39.536-17.702,39.536-39.536c0-21.835-17.708-39.537-39.536-39.537H221.822c-21.848,0-39.543,17.702-39.543,39.537
		c0,21.835,17.695,39.536,39.543,39.536h36.674c17.444,0,31.583,14.139,31.583,31.583c0,17.437-14.139,31.577-31.583,31.577H39.536
		C17.708,216.464,0,234.171,0,256s17.708,39.536,39.536,39.536h85.676c17.438,0,31.577,14.14,31.577,31.577
		c0,17.444-14.139,31.583-31.577,31.583H89.656c-21.842,0-39.543,17.702-39.543,39.537c0,21.829,17.701,39.536,39.543,39.536
		h276.039c21.835,0,39.536-17.708,39.536-39.536c0-21.836-17.701-39.537-39.536-39.537H239.352
		c-17.444,0-31.589-14.139-31.589-31.583c0-17.437,14.145-31.577,31.589-31.577h233.112C494.292,295.536,512,277.829,512,256
		S494.292,216.464,472.464,216.464z" style="fill: rgb(255, 255, 255);"></path>
</g>
</svg>
