<?xml version="1.0" encoding="UTF-8" standalone="no"?>
<svg
   xmlns:dc="http://purl.org/dc/elements/1.1/"
   xmlns:cc="http://creativecommons.org/ns#"
   xmlns:rdf="http://www.w3.org/1999/02/22-rdf-syntax-ns#"
   xmlns:svg="http://www.w3.org/2000/svg"
   xmlns="http://www.w3.org/2000/svg"
   id="svg8"
   version="1.1"
   viewBox="0 0 376.48553 45.938282"
   height="45.938282mm"
   width="376.48553mm">
  <defs
     id="defs2" />
  <metadata
     id="metadata5">
    <rdf:RDF>
      <cc:Work
         rdf:about="">
        <dc:format>image/svg+xml</dc:format>
        <dc:type
           rdf:resource="http://purl.org/dc/dcmitype/StillImage" />
        <dc:title></dc:title>
      </cc:Work>
    </rdf:RDF>
  </metadata>
  <g
     transform="translate(-1.1788132,-104.65973)"
     id="layer1">
    <g
       id="text817"
       style="font-style:normal;font-weight:normal;font-size:50.79999924px;line-height:1.25;font-family:sans-serif;letter-spacing:0px;word-spacing:0px;fill:#000000;fill-opacity:1;stroke:none;stroke-width:0.26458332"
       aria-label="創作展 観覧受付">
      <path
         id="path892"
         style="font-style:normal;font-variant:normal;font-weight:normal;font-stretch:normal;font-family:HakusyuGyosyo_kk;-inkscape-font-specification:HakusyuGyosyo_kk;stroke-width:0.26458332"
         d="m 19.782329,105.25505 q 0.347265,0.34726 1.736328,0.74414 1.438671,0.39687 1.835546,0.94257 l -0.198437,1.24024 -0.694531,0.69453 q -0.496094,-0.0992 -0.892969,-0.0992 -1.934766,0 -2.877344,2.87734 l 1.934766,-0.69453 1.389062,0.34727 0.694532,-0.19844 q 0.74414,0.59531 2.579687,0.84336 1.885156,0.19844 2.629297,0.79375 0,0.69453 0.446484,0.89297 -0.992187,2.28203 -2.232422,2.28203 -1.289843,0 -4.067968,-1.38906 -2.976563,-1.48828 -4.316016,-1.63711 -2.778125,3.12539 -7.689453,9.525 -1.7363279,2.72851 -3.472656,5.40742 -2.0339844,2.97656 -4.1671875,4.81211 l -1.1906249,-0.59531 0.2976562,-0.84336 -0.3472656,-1.19063 q 0.4464843,-1.73633 2.0339843,-3.91914 1.3394531,-1.83554 2.6789062,-3.62148 -0.049609,0.34726 -0.2480468,1.14101 -0.1984375,0.79375 -0.1984375,1.19063 0,0.24805 0.1488281,0.49609 6.0523435,-8.68164 11.0132815,-16.47031 l -0.248047,-0.99219 q 0.446484,-0.64492 0.892968,-1.28984 0.496094,-0.69453 1.190625,-0.59531 z m 22.224999,0.99218 q 0.148828,0.0496 2.232422,1.09141 2.133203,1.0418 2.331641,1.14101 0.595312,0.4961 0.595312,1.43868 0,0.94257 -1.736328,1.63711 -0.148828,1.83554 -0.892969,7.68945 -0.04961,0.29765 -0.297656,1.38906 -0.198437,0.79375 -0.198437,1.5875 0,8.53281 1.041796,17.06563 0.04961,0.39687 0.396875,2.1332 0.297657,1.48828 0.297657,2.03398 0,4.11758 -2.827735,7.14375 h -2.282031 q -2.182812,-4.81211 -3.91914,-6.79648 -0.744141,-0.84336 -2.033985,-2.72852 0.744141,0.0992 2.778125,0.64493 1.736328,0.49609 2.778125,0.49609 1.339453,0 1.339453,-2.03399 0,-3.02617 -0.297656,-9.07851 -0.248047,-6.10195 -0.248047,-9.12813 0,-1.73632 0.347266,-5.20898 0.396875,-3.52227 0.396875,-5.20898 0,-2.92696 -1.289844,-2.92696 -3.423047,3.42305 -3.522266,3.57188 -0.843359,1.19062 -1.637109,4.86172 l 0.248047,0.89296 -1.835547,12.50157 0.198438,0.74414 -1.339454,3.47265 -0.843359,0.14883 q -0.148828,-0.44648 -0.644922,-0.64492 -0.496094,-0.19844 -0.942578,-0.34727 l -1.240234,-2.77812 q 0.545703,-2.43086 1.091406,-4.91133 0.595312,-2.92695 0.595312,-4.96094 0,-0.84336 -0.694531,-1.88515 -0.644922,-1.09141 -0.694531,-1.53789 l 2.282031,0.44648 2.43086,1.53789 q 0.644921,-2.23242 1.240234,-4.41523 0.892969,-2.92695 1.736328,-4.06797 0.744141,-0.79375 1.488281,-1.63711 0.892969,-1.09141 0.892969,-1.93477 l 0.545703,-0.84335 0.79375,-0.19844 q 0.09922,-0.19844 0.248047,-0.34727 0.04961,0 0.694531,0 0.297656,0 0.396875,-0.0496 z m -23.812499,9.27696 q 1.141015,0.24804 2.282031,0.5457 1.190625,0.29765 1.686718,1.63711 -6.548437,3.57187 -9.47539,6.99492 l 10.021094,-5.15938 q 0.545703,0.44649 2.133203,0.79375 1.438672,0.34727 2.182812,1.09141 l 0.248047,1.24024 q -0.545703,0.94257 -1.339453,1.04179 -1.289844,2.43086 -1.537891,3.77031 -0.347265,2.23243 -0.396875,2.28204 -0.297656,1.28984 -1.091406,1.98437 -4.613672,-0.0496 -7.639844,2.08359 l -0.892968,3.42305 1.339453,1.43867 q 0.248047,-0.34726 1.190625,-0.89297 0.74414,-0.39687 1.438672,-0.79375 0.396875,-0.24804 1.240234,-1.19062 0.694531,-0.74414 1.438672,-1.0418 1.389062,-0.44648 3.274219,-0.44648 1.637109,0 4.514453,2.48047 l 0.148828,1.33945 -0.347266,0.74414 q -1.438672,0 -4.117578,2.67891 0.198438,0.29765 0.644922,0.29765 0.09922,0 0.347266,0 0.248046,-0.0496 0.347265,-0.0496 0.992188,0 0.992188,1.98438 -0.992188,0.44648 -4.117578,0.64492 -2.579688,0.19844 -3.571875,1.19063 -0.446485,-0.0496 -0.545703,-0.54571 -0.148829,-0.69453 -0.148829,-0.74414 l 0.446485,-1.48828 q 1.637109,-2.28203 3.819922,-5.45703 -3.869532,0.0992 -6.35,3.07578 0.347265,1.33945 0.942578,4.01836 l -0.496094,2.03398 -1.091406,0.14883 -1.5875,-2.23242 q 0,-3.57187 -0.892969,-4.86172 -2.282031,3.96875 -6.8957029,5.45703 -1.3394531,0.44649 -1.2898437,0.44649 6.7964846,-6.39961 8.8800776,-16.3711 l -0.248047,-1.14101 0.248047,-0.94258 -1.240234,-0.84336 -2.480469,1.48828 -0.2480466,-0.89297 0.4960936,-1.48828 q 4.464844,-3.42304 6.796484,-7.24297 -0.396875,-0.39687 -0.892968,-0.79375 -0.446485,-0.44648 -0.446485,-0.94257 0.198438,-0.4961 0.992188,-0.54571 1.091406,-0.14883 1.289844,-0.24804 z m -3.373438,9.72343 q 0.297656,0.29766 0.892969,0.34727 0.595312,0.0496 1.091406,0.0992 l 5.010547,-1.33946 q 0,-0.24804 0.09922,-0.74414 0.148828,-0.5457 0.148828,-0.84336 0,-0.39687 -0.248047,-0.64492 -1.537891,0.24805 -3.571875,1.28985 -1.736328,0.94257 -3.423047,1.83554 z m 1.537891,3.32383 q 0,0.44649 -0.297657,1.33945 -0.297656,0.84336 -0.297656,1.28985 0,0.24804 0.148828,0.5457 0.694532,-0.64492 2.480469,-1.33945 1.785938,-0.74414 2.480469,-1.28985 v -2.08359 q -2.530078,0.0992 -4.514453,1.53789 z" />
      <path
         id="path894"
         style="font-style:normal;font-variant:normal;font-weight:normal;font-stretch:normal;font-family:HakusyuGyosyo_kk;-inkscape-font-specification:HakusyuGyosyo_kk;stroke-width:0.26458332"
         d="m 76.932328,104.85817 q 2.232422,0.94258 3.522265,3.77031 -0.04961,0.4961 -0.198437,1.38907 -0.09922,0.89296 -1.141016,3.2246 -0.942578,2.0836 -0.942578,3.02618 0,0.34726 0.09922,0.59531 1.438672,-0.69453 4.167187,-1.88516 1.537891,-0.84336 3.125391,-1.63711 1.785937,-0.89297 3.423047,-0.89297 5.308203,0 6.994921,1.83555 l -0.545703,1.88516 q -3.224609,0.49609 -6.449218,0.99218 -3.819922,0.64493 -6.250782,1.98438 l 0.79375,1.28984 q -0.396875,0.34727 -0.74414,1.38907 -0.297656,0.99218 -0.248047,1.5875 0.297656,5.06015 0.297656,5.06015 0,0.44649 -0.09922,1.38906 -0.09922,0.89297 -0.09922,1.33946 0,0.14883 0.09922,0.44648 0.09922,0.29766 0.09922,0.44649 0,0.5457 -0.148828,1.63711 -0.148828,1.0914 -0.148828,1.63711 0,2.6789 0.297656,7.24296 l -0.198437,0.54571 0.198437,1.78593 q -0.198437,0.39688 -0.396875,2.28204 -0.198437,1.93476 -0.942578,2.97656 -2.133203,-1.83555 -2.133203,-3.91914 0,0.24804 0.396875,-4.96094 0.148828,-2.72852 0.545703,-9.02891 0.297656,-5.01054 0.297656,-5.20898 0,-4.41523 -0.843359,-6.10195 l -1.091406,-0.24805 q -4.365625,1.88516 -6.250781,3.77031 l -0.892969,-0.39687 -1.289844,-2.92696 0.248047,-1.43867 q 1.885156,-2.77812 3.571875,-6.64765 1.438672,-3.47266 2.877344,-6.94532 l -0.545703,-1.0914 z m 17.561718,19.24844 -0.297656,1.28984 -1.289844,0.89297 q -1.339453,2.08359 -1.736328,2.92695 -0.843359,1.73633 -0.942578,3.27422 l 6.895703,4.06797 -0.09922,0.19844 0.04961,0.14883 q 0.148828,0.14882 0.595312,0.29765 v 1.24024 l -0.992187,0.59531 q -0.446485,0.0992 -0.84336,0.0992 -0.545703,0 -1.289843,-0.24805 l -2.033985,0.14883 q -1.984375,0.94258 -3.423047,0.89297 l -2.133203,-0.0496 -0.545703,-0.84336 -1.339453,0.0992 3.869531,-3.22461 q -0.545703,-1.09141 -1.041797,-2.1332 -0.496093,-1.09141 -0.496093,-2.43086 0,-2.18282 1.091406,-5.50664 l -2.033984,-0.24805 q 0.446484,-0.34727 1.240234,-1.93477 0.644922,-1.19062 1.53789,-1.19062 3.770313,0 5.258594,1.63711 z m -29.914453,-14.48594 0.892969,0.34727 h 3.323828 l 1.438672,1.73632 q -4.613672,4.61368 -11.310937,21.48086 l 2.778125,-1.0914 q 0.74414,0.24804 1.488281,0.5457 0.744141,0.29766 1.240234,0.94258 l 2.033985,-5.45703 q 0,3.02617 -0.744141,7.83828 -0.744141,5.15937 -1.736328,7.49101 l -1.835547,4.36563 q -0.74414,-0.39688 -1.190625,-1.5875 -0.644922,-1.5875 -0.843359,-1.88516 l 0.248047,-2.72851 1.091406,-1.48828 0.248047,-2.92696 -0.248047,-0.89297 q -3.571875,1.73633 -7.540625,6.15157 -1.438672,-3.57188 -1.438672,-4.36563 0,-0.5457 1.339453,-2.92695 0.84336,-1.53789 1.736328,-3.07578 2.976563,-5.70508 7.9375,-17.90899 l -1.5875,-1.04179 -0.198437,-1.09141 q 1.389062,-0.49609 2.877343,-2.43086 z" />
      <path
         id="path896"
         style="font-style:normal;font-variant:normal;font-weight:normal;font-stretch:normal;font-family:HakusyuGyosyo_kk;-inkscape-font-specification:HakusyuGyosyo_kk;stroke-width:0.26458332"
         d="m 139.29131,104.65973 4.46484,2.48047 0.24805,1.24024 -0.24805,0.89296 -3.32382,0.54571 q -0.54571,0.44648 -2.0836,1.19062 -1.53789,0.74414 -1.88515,1.14102 l 1.14101,2.23242 -0.24804,0.64492 q -0.69454,0.24805 -2.57969,0.39688 -1.68672,0.14882 -2.53008,0.5457 0.84336,0.29766 1.68672,0.59531 0.89297,0.29766 1.43867,0.99219 0.44648,-0.0992 0.94258,-0.0992 1.68672,0 3.91914,0.99219 l 0.29766,0.69453 -0.44649,0.89297 q -0.64492,0 -1.38906,0.34726 -0.99219,0.39688 -1.28985,0.4961 -1.24023,0.29765 -2.48046,0.5457 -1.24024,0.5457 -1.24024,1.98438 0,0.34726 0.0992,0.74414 l 4.16719,-0.74414 q 2.03398,0.39687 2.6789,0.5457 1.88516,0.49609 2.43086,0.89297 0.59532,0.39687 0.59532,1.14101 0,0.29766 -0.29766,1.09141 l -5.75469,-0.69453 q 0,0 -0.89297,0.14883 0.29766,0.34726 0.64493,0.39687 0.59531,0.0992 0.69453,0.14883 l 0.34726,0.64492 q -0.44648,0.69453 -1.48828,1.24024 -1.68672,0.84336 -1.73633,0.84336 -0.59531,0.69453 -1.78593,1.93476 -1.19063,1.24024 -1.19063,1.63711 0.49609,0.94258 2.23242,2.23242 1.53789,-0.94258 2.0836,-2.23242 -0.59532,1.0418 -0.59532,3.47266 1.68672,1.33945 6.15157,3.57187 4.06796,2.03399 5.95312,3.81992 v 0.99219 q 0,0 -0.0496,0.29766 -0.29765,0.24804 -0.84336,0.5457 -0.84336,-0.0992 -2.57969,-0.29766 -5.40742,-0.84336 -6.10195,-1.0914 -1.73633,-0.69453 -4.86172,-3.81992 -8.38398,9.07851 -12.45195,9.67382 l -1.14102,-0.44648 q -0.69453,-0.79375 -1.78593,-2.53008 1.19062,-2.82773 1.88515,-6.79648 0.14883,-0.64492 1.0418,-6.99492 0,-0.74415 -0.5457,-2.23243 -2.43086,0.54571 -5.35782,2.72852 l -0.69453,-1.14102 q -0.19843,0.29766 -4.2664,7.04453 -3.12539,5.15938 -4.41524,6.10196 l -1.24023,-0.24805 q -0.44649,-1.19062 -0.44649,-3.81992 0,-0.74414 1.63711,-2.67891 1.88516,-2.18281 2.18282,-2.97656 l -0.0992,1.19063 0.24804,0.59531 q 4.06797,-5.70508 8.33438,-16.61914 2.18281,-5.60586 2.18281,-5.55625 0,-0.29766 -0.49609,-0.74414 -0.44649,-0.4961 -0.4961,-0.84336 l 1.38907,-1.28985 q -0.69453,0 -1.5875,0.44649 -1.24024,0.5457 -1.53789,0.64492 l -0.4961,-0.89297 q 0.0992,-0.89297 0.0496,-2.77812 1.09141,-0.99219 3.175,-0.99219 l 0.59531,0.39687 q 4.36563,-2.28203 8.13594,-3.32382 3.02617,-0.54571 8.88008,-2.13321 l 1.43867,0.34727 z m -19.99258,8.38399 2.87735,0.89297 0.0496,1.14101 0.89297,0.19844 q 1.24023,-0.79375 3.77031,-2.18281 2.03398,-0.94258 4.01836,-1.93477 2.48047,-1.33945 3.12539,-2.92695 l -3.42305,0.14883 q -3.91914,0.14882 -11.31094,4.66328 z m 2.43086,4.7625 -0.44648,-1.19063 q -0.44649,0.0496 -0.74414,0.64492 -0.39688,1.14102 -0.94258,2.92696 -1.24023,2.43086 -2.53008,5.15937 -0.14883,0.64492 -1.0914,2.6293 -0.74415,1.63711 -0.74415,2.6789 0,0.44649 0.24805,0.69454 0.79375,-0.89297 2.28203,-0.89297 l 0.0992,0.0496 q 0,0.19843 0.0496,0.29765 0.0992,0.0992 0.14883,0.0992 0.29766,0 3.02617,-1.48828 2.92695,-1.68672 3.47266,-1.88516 l -0.54571,-0.0992 q -0.24804,-0.29766 -0.5457,-1.5379 -0.24805,-1.0914 -0.59531,-1.28984 -0.29766,0 -0.84336,0.0496 -0.49609,0.0496 -0.74414,0.0496 -1.19063,0 -2.03399,-0.5457 0.99219,-0.29766 2.38125,-0.99219 1.68672,-0.84336 2.28204,-1.09141 0.0496,-0.34726 0.0496,-0.64492 0,-0.74414 -0.74414,-2.33164 l 4.01836,1.83555 4.06797,-1.38907 q 0.0496,-0.19843 0.0496,-0.34726 0,-0.74414 -1.88515,-1.83555 l 0.89296,-0.94258 q -0.59531,-0.0992 -1.14101,-0.0992 -1.24024,0 -3.7207,0.74414 -2.43086,0.74414 -3.77032,0.74414 z m 5.10977,5.60586 q -0.4961,0.44648 -0.74414,1.68671 -0.24805,1.5875 -0.39688,1.88516 1.78594,-0.19844 3.27422,-1.19062 1.73633,-1.19063 1.73633,-2.82774 0,-0.19844 -0.0496,-0.44648 z m 1.14101,5.20898 q 0.19844,0.99219 1.24024,2.08359 0.94258,0.89297 1.83554,1.78594 1.63711,-1.93476 2.53008,-3.7207 l -0.19843,-1.0418 0.64492,-0.74414 q -2.77813,0 -6.05235,1.63711 z m -4.41523,1.5875 0.44648,1.14102 q -0.0496,1.63711 -0.0992,3.32382 -0.0992,1.93477 -0.54571,3.22461 l 0.29766,0.89297 q 2.6789,-1.38906 5.20898,-3.81992 l -1.93476,-6.20117 q -2.67891,0.0992 -3.37344,1.43867 z m -0.44648,9.32656 v 0.29766 q 0.0496,0.74414 -0.39688,2.18281 -0.39687,1.43867 -0.39687,2.18281 0,0.34727 0.0992,0.74414 3.22461,-1.93476 4.7625,-2.97656 2.57969,-1.73633 4.36563,-3.42304 -0.19844,-0.34727 -1.83555,-2.43086 -2.57969,1.83554 -6.59804,3.42304 z" />
      <path
         id="path898"
         style="font-style:normal;font-variant:normal;font-weight:normal;font-stretch:normal;font-family:HakusyuGyosyo_kk;-inkscape-font-specification:HakusyuGyosyo_kk;stroke-width:0.26458332"
         d="m 195.3003,109.2734 q 0,0.54571 -0.34727,1.24024 -0.49609,1.0418 -0.5457,1.19062 l 3.32383,-0.79375 2.23242,0.44649 0.4961,1.14101 q -0.74415,0.0992 -1.43868,0.79375 -0.64492,0.69454 -1.24023,1.33946 -1.09141,0.59531 -2.67891,2.03398 0,0.24805 0.0496,0.69453 0,0.44649 0,0.64492 0,0.54571 -0.39687,1.53789 -0.44649,1.24024 -0.54571,1.5875 2.0836,-0.0992 4.01836,-1.5875 0.29766,0 0.89297,-0.0496 0.59531,-0.0496 0.89297,-0.0496 1.73633,0 2.67891,1.04179 -0.39688,0.4961 -1.43867,1.0418 -1.09141,0.94258 -4.81211,2.1332 -3.72071,1.19063 -4.11758,1.63711 -0.34727,0.39688 -0.54571,1.0418 -0.29765,1.19062 -0.29765,1.19062 -0.79375,1.98438 -0.79375,2.43086 l 0.44648,0.74414 q 2.33164,-0.69453 4.61367,-2.23242 l -0.19843,-1.48828 -1.5875,-1.0418 1.68672,-0.44648 2.08359,0.44648 0.29766,0.94258 1.04179,-0.59531 q 0.54571,0.0992 2.18282,0.0992 0,0 1.19062,0.24805 l 0.24805,0.64492 q -0.59532,1.0914 -2.43086,1.73633 -2.0836,0.64492 -2.53008,1.19062 -0.0496,0.19844 -0.24805,0.69453 -0.14883,0.4961 -0.14883,0.74414 0,0.34727 0.39688,0.54571 0.0992,-0.79375 1.19062,-0.79375 0.4961,0 1.0418,0.14882 0.99219,-0.19843 0.99219,-0.19843 0.5457,0 1.0418,0.34726 0.49609,0.29766 0.49609,0.79375 -0.5457,0.64492 -3.07578,1.33945 -2.23242,0.64493 -2.23242,1.19063 0,0.39687 0.39687,1.09141 0.39688,0 1.24024,-0.0992 0.89296,-0.0992 1.28984,-0.0992 0.94258,0 1.28984,0.94258 -0.49609,0.79375 -2.48047,2.18281 -1.68671,1.24023 -1.98437,2.53008 h 0.34727 q 0.49609,0.0496 1.5875,-0.29766 1.0914,-0.34726 1.6371,-0.24805 0.54571,-0.19843 1.09141,-0.19843 1.33945,0 2.77813,1.19062 1.43867,-2.23242 4.11757,-6.84609 0.54571,-1.14102 1.93477,-3.42305 -3.27422,0.39688 -6.39961,2.48047 l -0.19844,-2.18281 q -0.0496,-0.44649 0.74414,-1.0418 0.59532,-0.39687 1.19063,-0.79375 l -0.69453,-2.6293 1.38906,-9.17773 q 0,0 -0.14883,-2.23242 l 1.19063,2.87734 q 1.78593,-1.09141 3.62148,-2.1332 2.28203,-1.24024 3.91914,-1.24024 0.5457,0 1.5875,0.74414 0.34727,-0.74414 0.34727,-2.23242 0,0.44649 -0.0992,-1.38906 l -0.59531,-0.29766 q -3.52227,0.79375 -4.91133,0.74414 h -0.4961 q 1.14102,-1.04179 6.00274,-3.12539 1.19062,0.19844 2.62929,1.0418 1.68672,1.0418 1.68672,2.03399 0,0.84335 -0.94257,1.38906 -0.14883,0.24804 -0.34727,2.1332 -0.14883,1.83555 -0.0992,2.33164 0.49609,6.00274 0.49609,6.39961 0,4.01836 -2.18281,5.01055 -1.73633,-0.64492 -1.48828,-2.57969 l 0.44649,-3.57188 q 0.0496,-0.29765 -0.14883,-3.86953 -0.19844,-3.57187 -0.29766,-4.01836 -0.44648,0.44649 -2.77812,1.53789 -2.13321,0.94258 -3.12539,1.28985 -1.33946,0.14883 -3.22461,0.5457 v 3.47266 q 1.28984,0 3.52226,-0.94258 2.23242,-0.99219 3.52227,-0.99219 1.73633,0 1.98437,1.48828 -4.61367,2.6293 -7.39179,4.96094 l 2.62929,-3.07578 -3.81992,0.14883 q -0.5457,2.23242 -0.44648,4.01836 l 1.38906,-0.84336 -1.53789,1.73633 q 2.87734,-0.4961 4.71289,-2.33164 1.53789,-0.0992 1.53789,-0.0992 0,0 1.93477,0.24804 v 1.19063 q -0.99219,0.44648 -1.68672,1.73633 -0.59532,1.0914 -1.14102,2.23242 l 0.19844,0.84336 q -1.14102,4.2664 -1.14102,8.73125 0,0.5457 0.14883,1.93476 0.0992,0.99219 0.19844,1.98438 0.29765,0.79375 1.53789,1.28984 0.69453,0.24805 1.48828,0.24805 0.99219,-0.0992 2.87734,-0.5457 0.44649,-0.19844 1.0418,-0.59532 0.59531,-0.34726 1.5875,-3.07578 0.89297,-2.53008 0.94258,-3.57187 0.0496,-1.0418 0.24805,-1.63711 l 2.23242,4.16719 0.39687,6.10195 q -1.0914,0.44648 -4.2664,1.0914 -3.175,0.69454 -4.16719,0.69454 -1.78594,0 -3.22461,-1.14102 -1.43867,-1.09141 -2.1332,-2.77812 -0.14883,-0.44649 -0.39688,-2.38125 -0.0992,-0.99219 -0.0496,-3.32383 0.0496,-2.18282 -0.14883,-3.32383 -0.59531,0.74414 -3.77031,5.75469 -1.98437,3.07578 -5.20898,5.10976 l -0.64492,-0.74414 q 0.5457,-0.5457 1.38906,-1.98437 0.89297,-1.38907 1.28984,-1.73633 -1.38906,-0.74414 -3.52226,-0.74414 -0.14883,0 -2.72852,0.44648 -4.61367,0.79375 -6.74687,2.33164 0.0992,0.79375 0.0992,0.79375 0,0 -0.0992,1.53789 -0.19844,0.0992 -0.44649,1.14102 -0.24805,1.09141 -0.79375,1.09141 l -0.19844,-0.0496 q -0.64492,-0.4961 -1.04179,-1.5875 -0.64493,-1.63711 -0.74414,-1.83555 1.33945,-2.48047 1.88515,-6.44922 0.39688,-3.32383 0.79375,-6.69727 l -0.24804,-1.14101 q -1.78594,3.47266 -3.57188,6.8957 -2.18281,4.11758 -4.56406,6.30039 l -0.84336,-0.24804 -0.24805,-2.53008 1.09141,-1.53789 0.59531,0.69453 q 5.35781,-8.73125 7.54063,-15.875 -4.41524,1.5875 -7.68946,2.53008 l -0.19844,-2.0836 q 0.0496,-0.0496 1.93477,-1.5875 2.43086,-1.88515 4.81211,-3.81992 3.07578,-2.48047 4.41523,-4.11758 -0.0992,-0.64492 -0.89296,-0.64492 0.29765,-0.5457 1.19062,-0.5457 0.94258,0 1.24023,-0.79375 l -0.0992,-0.24805 -3.62149,1.33945 -0.84336,-0.19843 -0.59531,-2.03399 q 0.39687,-0.99218 2.18281,-3.37343 1.48828,-2.03399 1.73633,-3.57188 l -1.19062,-1.0418 q 1.93476,0.14883 2.62929,0.64493 0.94258,0.64492 0.94258,2.43085 z m -12.45195,16.61914 -0.24805,0.4961 q 0.94258,0 3.32383,-1.43867 1.53789,-0.69453 4.66328,-2.33164 1.19062,-0.79375 1.19062,-2.6293 0,-0.39688 -0.0992,-0.64492 -1.0418,0.64492 -3.12539,1.93476 -0.34727,0.24805 -2.57969,2.33164 -1.0418,0.74414 -3.12539,2.28203 z m 8.4832,5.90352 q -0.5457,0.24805 -0.5457,1.53789 v 0.74414 q 0,0 0.14883,1.09141 0.84335,0 2.23242,-0.69453 1.88515,-1.0418 2.08359,-1.09141 l 0.24805,-2.28203 q -0.34727,-0.0992 -0.69453,-0.0992 -0.54571,0 -1.68672,0.44648 -1.09141,0.39688 -1.78594,0.34727 z m 1.14102,3.81992 q 0,0 -1.43868,-0.24804 -0.79375,1.68671 -0.79375,2.92695 0,0.64492 0.19844,1.38906 l 4.81211,-2.28203 v -2.03398 q -2.77812,0.24804 -2.77812,0.24804 z m -0.34727,4.36563 -1.63711,-0.19844 -0.34726,3.32383 0.5457,0.74414 q 0.19844,-0.5457 2.48047,-0.4961 l 2.18281,-0.89296 -0.5457,-0.89297 -0.74414,0.19843 q 0.84336,-0.99218 0.84336,-1.78593 0,-0.44649 -0.29766,-0.64492 z" />
      <path
         id="path900"
         style="font-style:normal;font-variant:normal;font-weight:normal;font-stretch:normal;font-family:HakusyuGyosyo_kk;-inkscape-font-specification:HakusyuGyosyo_kk;stroke-width:0.26458332"
         d="m 247.04287,104.11403 q 3.02617,0 4.16718,1.63711 -0.14882,0.69453 -1.28984,0.69453 -1.14102,0 -1.33945,0.64492 l -1.09141,-0.89297 -1.43867,0.59532 1.33945,1.14101 q 0,0.64492 -0.79375,1.83555 -0.79375,1.19062 -0.79375,1.68672 0,0.14883 0.0496,0.39687 l 3.77031,-0.69453 q 0.59532,-0.0992 1.43868,0.29766 0.84335,0.39687 1.28984,0.89297 -0.49609,0.14882 -1.5875,1.53789 -0.99219,1.19062 -1.78594,1.0914 l -1.04179,1.24024 q 0.24804,0.19843 1.48828,0.39687 0.94257,0.0992 1.38906,0.94258 -0.89297,0.49609 -2.72852,0.94258 -1.83554,0.44648 -2.62929,0.89297 l 0.84336,0.79375 q 0,0.89297 -0.89297,1.88515 -1.28985,1.43867 -1.38907,1.63711 1.28985,-0.24804 3.91915,-0.99219 1.19062,0 2.38124,0 1.43868,0.0496 1.93477,0.99219 -0.44648,0.44649 -1.14102,1.53789 l 0.0992,0.24805 q 0.19844,0.29766 0.4961,0.39687 1.5875,-2.18281 4.96093,-3.77031 1.93477,-0.89297 5.95313,-2.18281 0.49609,0.29766 2.67891,1.09141 1.63711,0.5457 2.38125,1.68671 -0.0496,0.4961 -0.4961,1.63711 -0.44648,1.09141 -0.44648,1.68672 0,0.59532 0.19844,1.83555 0.24804,1.24023 0.24804,1.83555 0,0.19843 -0.0992,0.69453 -0.0992,0.44648 -0.0992,0.64492 0,0 0.19844,1.43867 -0.39687,1.83555 -2.08359,3.02617 -0.99219,-0.29765 -1.38906,-1.19062 -0.0496,-0.0992 -0.44649,-1.78594 l 0.19844,-1.33945 q -0.39688,-1.33946 -0.39688,-4.26641 0.0496,-2.92695 -0.44648,-4.36562 -0.5457,-0.0992 -1.0418,-0.0992 -2.53008,0 -6.10195,1.73633 -4.06797,1.98437 -4.06797,4.16718 0,0.29766 0.0496,0.89297 0.0992,0.59531 0.0992,0.89297 0,0.64492 -0.19844,0.99219 0.0496,0.24805 0.0992,0.59531 l -0.39687,3.22461 -0.44649,0.49609 q 2.53008,-1.43867 4.81211,-3.7207 l -3.7207,0.19844 q 0.39687,-0.39688 5.65547,-2.67891 0.69453,-0.29765 1.38906,-0.29765 0.44648,0 0.89297,0.0992 l 0.69453,0.84336 q -1.0418,0.4961 -3.12539,1.68672 l -4.06797,2.53008 q 0,0.39688 -0.59531,0.84336 -0.54571,0.44648 -0.59532,0.74414 1.68672,-0.5457 3.42305,-1.09141 1.83555,-0.79375 2.67891,-2.28203 l 0.94258,0.74414 1.33945,-0.19843 0.94258,0.64492 v 0.69453 q -2.87735,2.33164 -3.27422,3.02617 -0.39688,0.69453 -0.64492,4.16719 -0.0496,0.34726 -0.19844,1.24023 -0.14883,0.89297 -0.14883,1.33946 0,2.43086 4.56406,2.6789 0.29766,0 1.48828,0.0992 0.89297,0.0496 1.43868,0.0496 3.96875,0 5.70507,-2.97656 1.0418,-1.78594 1.88516,-6.54844 0.74414,2.87734 2.08359,3.27422 0.24805,3.52227 0.24805,3.62148 0,0.74414 -0.44648,1.68672 -0.84336,1.53789 -2.28203,1.93477 -2.0836,0.5457 -2.57969,0.94258 -0.99219,-0.14883 -0.99219,-0.14883 l -4.41523,0.44648 q 0.19843,0 -2.97657,-0.39687 -5.70507,-0.74414 -5.3082,-6.89571 l -0.49609,-0.69453 q -7.19336,7.68946 -12.65039,9.67383 l -1.48828,-0.34726 q 1.5875,-1.0418 3.52226,-2.97657 1.5875,-1.63711 3.22461,-3.27422 3.02617,-2.92695 3.37344,-3.27421 1.88515,-1.93477 2.92695,-3.6711 -2.67891,0.54571 -5.75469,2.18281 -1.43867,0.79375 -5.25859,3.27422 l -0.79375,-1.48828 0.89297,-1.04179 q 0.0992,-0.0992 2.08359,-1.0418 3.81992,-1.83555 5.55625,-3.22461 l -1.14101,-0.59531 q -0.59532,-3.07578 -0.59532,-3.07578 0,-3.96875 1.73633,-7.24297 -1.5875,-0.34727 -1.5875,-0.34727 -4.21679,0 -10.31875,2.38125 l -0.59531,-0.89297 -1.09141,1.78594 q -1.33945,0 -1.33945,-0.99219 0,-0.24804 0.0496,-0.59531 l -0.49609,-1.33945 q 2.03398,-4.66328 2.03398,-8.63203 0,-0.34727 -0.0992,-1.0418 -0.0496,-0.69453 -0.0496,-0.99219 -0.0992,-3.62148 -1.48828,-5.01055 1.78594,0.74415 3.07578,4.81211 1.98438,0 3.62149,-1.68671 1.48828,-1.5379 1.98437,-3.57188 l -1.0914,-1.24023 -2.03399,0.34726 -1.5875,-0.5457 q 1.5875,-0.4961 3.12539,-1.0418 1.88516,-0.64492 2.77813,-1.68672 z m 13.59296,0.29766 q 0.39688,0.19843 2.38125,0.49609 1.43868,0.19844 2.0836,1.19062 l -2.72852,4.2168 q 4.61367,-0.5457 6.74688,-1.83555 0.39687,0.39688 1.98437,0.84336 1.38907,0.39688 1.78594,1.24024 -3.57187,3.22461 -6.59805,4.66328 0,0.39687 0.79375,0.64492 0.79375,0.24805 0.79375,0.69453 0,0.69453 -0.89297,1.48828 -1.0914,0.0992 -3.96875,0.89297 -2.48046,0.69453 -3.96875,0.69453 -0.49609,-0.19843 -1.14101,-0.39687 0.79375,-0.79375 3.86953,-3.22461 2.43086,-1.88516 3.62148,-3.52227 l -0.74414,-0.24804 q -4.96093,1.48828 -8.38398,3.67109 -0.84336,-1.0418 -0.84336,-2.1332 0,-0.39688 0.0992,-0.79375 0.59531,-0.59531 0.34726,-0.89297 2.48047,-1.28984 4.06797,-5.15938 l -1.38906,-1.14101 q 1.68672,-0.44649 2.08359,-1.38906 z m -21.97695,11.70781 -0.5457,9.72344 q 4.06797,-1.83555 5.95312,-4.91133 -0.0992,-0.99219 -1.24023,-0.99219 -2.38125,0 -2.82773,1.14102 l -0.64493,-0.69454 q 4.91133,-2.33164 8.58243,-6.54843 0,-0.24805 -0.0496,-0.4961 l -0.0992,-0.0992 -0.14883,0.14883 q -1.14102,0.34727 -3.47266,1.0418 -1.43867,0.29766 -2.92695,0.5457 -1.83555,0.39688 -2.57969,1.14102 z m 21.92735,9.82265 q -0.54571,0.54571 -1.28985,0.79375 -2.1332,0.84336 -4.91133,1.73633 l -1.24023,-0.59531 q 1.09141,-0.34727 2.33164,-1.14102 1.48828,-0.99218 2.1332,-1.28984 0.14883,0 0.34727,0 0.24805,0 0.74414,-0.0496 0.5457,-0.0496 0.79375,-0.0496 0.69453,0 1.09141,0.59531 z" />
      <path
         id="path902"
         style="font-style:normal;font-variant:normal;font-weight:normal;font-stretch:normal;font-family:HakusyuGyosyo_kk;-inkscape-font-specification:HakusyuGyosyo_kk;stroke-width:0.26458332"
         d="m 308.26084,104.85817 q 0.24804,0.94258 1.68672,1.28984 1.48828,0.29766 1.73632,1.19063 l -0.44648,1.38906 h -0.29766 q -0.84336,-0.0496 -1.93476,0.5457 -0.89297,0.4961 -1.78594,0.99219 -0.49609,0.14883 -1.43867,0.4961 -1.38906,0.74414 -4.2168,2.08359 -0.24804,0.14883 -5.8539,1.88516 -3.72071,1.19062 -5.10977,1.14101 h -0.59531 q 2.18281,-1.38906 7.09414,-4.01836 4.71289,-2.57969 7.09414,-4.11758 l -0.44649,-1.53789 q 0.64493,-0.39687 1.28985,-0.84336 0.19844,-0.0992 1.19062,-0.0992 0.39688,0 0.64493,-0.29766 z m 5.60586,6.10195 3.81992,1.48828 q -5.55625,5.90352 -12.05508,7.3918 0.79375,-1.14101 3.02617,-3.02617 2.23242,-1.93477 3.02617,-3.175 l -1.68671,-0.0496 q 0.14882,-0.89297 1.5875,-1.5875 1.14101,-0.5457 2.28203,-1.0418 z m -9.22735,4.31602 q 0,0.84336 -0.39687,2.57969 -0.39688,1.68671 -0.39688,2.62929 1.5875,0 4.61368,-0.79375 3.07578,-0.79375 4.71289,-0.79375 4.31601,0 8.28476,1.53789 2.77813,1.09141 3.37344,4.06797 l -0.44649,1.24024 q -3.42304,-0.59532 -3.77031,-0.59532 -0.69453,0 -4.21679,0.94258 -1.19063,0.29766 -3.47266,0.94258 -2.57969,0.94258 -4.56406,4.11758 -1.48828,2.82773 -3.02618,5.65547 3.1254,2.38125 6.49883,3.77031 4.01836,1.43867 7.98711,2.87734 4.36563,1.73633 7.14375,4.61368 -1.48828,1.0914 -3.57187,0.94257 -3.22461,-0.24804 -3.22461,-0.24804 -0.19844,0 -0.64492,0.0992 -0.39688,0.0992 -0.59532,0.0992 -0.69453,0 -2.72851,-0.29765 -2.18281,-0.29766 -2.72852,-0.54571 -1.0914,-0.59531 -3.22461,-1.78593 -4.81211,-2.57969 -7.24297,-5.40742 -1.04179,0.64492 -2.82773,2.38125 -1.73633,1.68671 -2.77813,2.33164 -1.43867,0.89296 -3.62148,1.33945 -2.38125,0.5457 -3.02617,0.84336 l -0.59531,-0.24805 -2.38125,0.5457 q -0.44649,-0.19843 -2.28203,-0.5457 -1.38907,-0.24805 -2.23243,-0.89297 11.6086,-1.93476 17.66094,-9.0289 -0.69453,-1.68672 -2.48047,-3.02618 -2.03398,-1.53789 -2.48047,-2.33164 l -0.89297,0.44649 -1.19062,-1.38906 0.64492,-2.18282 2.38125,-1.28984 0.24805,0.89297 q 1.53789,-0.89297 4.2664,-1.68672 3.62149,-0.99219 4.46485,-1.33945 0.24804,-1.43868 0.39687,-1.53789 0.14883,-0.0992 1.93477,-0.14883 0.39687,0.49609 1.63711,1.0914 1.53789,0.74414 1.83554,0.94258 0.59532,-0.44648 2.82774,-1.63711 1.73633,-0.94258 2.6293,-1.98437 -0.89297,-1.09141 -2.28204,-1.19063 -2.08359,-0.19843 -2.33164,-0.29765 -1.38906,0.44648 -6.35,1.04179 -2.03398,0.24805 -5.45703,1.19063 -3.42304,0.89297 -5.25859,1.68672 -1.73633,0.94258 -3.47266,1.88515 -2.28203,1.24024 -3.52226,1.19063 -0.44649,2.43086 -0.84336,4.86172 -0.5457,2.82773 -2.0836,4.36562 l -1.14101,-0.44648 q -0.59531,-1.19063 -0.59531,-2.48047 0,-0.29766 0.64492,-2.67891 1.28984,-4.61367 1.38906,-7.09414 0.44649,0.0992 1.09141,0.89297 0.44648,0.59531 0.89297,1.24024 0.64492,-0.94258 2.62929,-1.83555 2.28203,-1.0418 2.97657,-1.63711 -0.64493,-2.38125 -2.92696,-5.20899 l 1.78594,-0.64492 q 0.84336,0.44649 2.53008,0.89297 1.19062,0.29766 1.5875,0.84336 0.5457,0.84336 0.44648,3.02617 h 0.34727 q 0.79375,0.0496 2.08359,-0.34726 1.53789,-0.4961 2.08359,-0.54571 -0.64492,-4.51445 -1.33945,-5.45703 l 2.43086,0.4961 z m -7.98711,16.81758 q 1.5875,0.5457 3.22461,1.14101 1.63711,0.54571 2.87735,1.53789 2.1332,-2.33164 2.87734,-6.35 -2.23242,0.0992 -4.71289,1.28985 -2.1332,1.19062 -4.26641,2.38125 z" />
      <path
         id="path904"
         style="font-style:normal;font-variant:normal;font-weight:normal;font-stretch:normal;font-family:HakusyuGyosyo_kk;-inkscape-font-specification:HakusyuGyosyo_kk;stroke-width:0.26458332"
         d="m 366.25418,106.5945 q 0.4961,-0.0992 3.81993,1.68672 v 1.93476 l -1.0418,0.64492 -0.74414,4.11758 0.29766,1.14102 2.18281,-0.44649 q 1.48828,0.24805 3.02617,0.54571 1.73633,0.29765 2.77812,1.24023 1.09141,0.89297 1.09141,1.68672 0,0.99219 -0.69453,1.63711 -0.69453,0.59531 -1.68672,0.59531 -0.0992,0 -6.69726,-0.29765 -0.34727,0.44648 -0.4961,2.1332 -0.14883,1.43867 -0.0496,2.23242 l 0.74414,6.59805 q -0.0992,0.49609 -0.19843,1.19062 0.94257,7.88789 0.94257,7.88789 0,0 -0.29765,1.98438 l 0.14883,0.69453 q -0.4961,0.74414 -0.84336,2.03398 -0.39688,1.5875 -0.59532,2.0836 -0.29765,0.64492 -1.28984,1.0914 -0.99219,0.44649 -1.14102,0.69453 -0.74414,-0.49609 -1.0914,-1.48828 -0.4961,-1.33945 -0.69453,-1.63711 -0.39688,-0.59531 -1.19063,-1.33945 -1.04179,-0.94258 -1.28984,-1.24023 -0.64492,-0.99219 -1.88516,-2.92696 -1.73633,-2.62929 -4.86172,-5.20898 -0.44648,-0.14883 -0.84336,-0.14883 -0.79375,0 -1.63711,0.44649 -0.84335,0.44648 -1.5875,0.89296 0.29766,-0.5457 1.73633,-2.57968 1.0418,-1.48828 1.33946,-2.87735 -1.24024,-0.89297 -1.24024,-1.63711 0,-0.99218 0.5457,-1.83554 0.59532,-0.84336 1.5379,-0.84336 -0.19844,0 1.78593,0.39687 4.16719,0.79375 4.16719,2.92696 0,0.84335 -0.64492,1.73632 -0.84336,-0.0496 -0.84336,-0.0496 -1.68672,0 -3.42305,2.28204 0.44649,1.78593 3.77031,3.62148 2.82774,1.53789 5.20899,1.98437 0.44648,-0.69453 0.44648,-1.33945 -0.0496,1.28985 -0.0496,-1.38906 0,-0.39688 0.14883,-0.69453 l -0.49609,-13.79141 q 0,0 -0.14883,-1.43867 -3.52227,0 -8.38398,1.83555 -5.01055,1.93476 -7.3918,4.31601 l -1.24024,-0.34726 -0.94257,-1.88516 0.74414,-1.63711 q 0.49609,-0.0496 1.43867,-0.19844 l 2.43086,-1.24023 q 6.74687,-3.37344 13.84101,-5.50664 l 0.44649,-5.55625 -0.29766,-0.74414 q -2.38125,0 -2.57969,-0.99219 0.29766,-0.24805 0.94258,-1.43867 0.54571,-1.0418 0.89297,-1.09141 z m -18.80195,5.06015 q 0,0.4961 -0.24804,0.89297 -0.39688,0.69453 -1.5379,1.73633 -1.0914,1.0418 -1.48828,1.5875 -0.19843,0.29766 -1.38906,3.07578 -0.19844,0.44649 -2.03398,4.11758 -1.24024,2.48047 -1.68672,4.26641 l 2.92695,1.04179 q 0.84336,1.53789 0.74414,2.67891 0.5457,-0.5457 1.28985,-1.98438 0.79375,-1.48828 1.33945,-1.88515 0.0496,0.39687 0.0496,0.74414 0,1.88516 -0.84336,3.47266 0.0496,0.29765 0.0496,0.59531 0,0.79375 -0.34727,1.78594 -0.5457,1.33945 -1.5875,4.01835 -0.49609,1.5875 -0.99219,3.1254 -0.59531,1.88515 -1.28984,3.02617 -0.64492,1.0914 -1.73633,1.68672 -0.14883,-0.39688 -0.79375,-1.09141 -0.44648,-0.44648 -0.44648,-1.43867 0,-0.59531 -0.4961,-0.89297 v -0.94258 q 1.73633,-3.77031 2.28204,-10.12031 -4.41524,2.33164 -5.75469,5.40742 -0.19844,0.0496 -0.44649,0.0496 -0.69453,0 -1.04179,-0.49609 l -0.54571,-2.28204 0.19844,-0.94257 6.05235,-9.32657 q 0.39687,-0.99218 1.24023,-2.92695 1.0418,-2.38125 3.07578,-7.24297 l -1.98437,-1.33945 q -0.14883,-0.29766 -0.14883,-0.49609 0,-0.64493 0.94258,-1.33946 0.94257,0 1.48828,-0.44648 1.43867,0.14883 2.87734,0.34726 1.48828,0.19844 2.28203,1.53789 z m 6.64766,19.24844 q 0.5457,-0.34726 0.59531,-1.0418 -0.0992,-0.0496 -0.24805,-0.0496 h -0.0496 z" />
    </g>
  </g>
</svg>
