<?xml version="1.0" encoding="UTF-8" standalone="no"?>
<svg
   xmlns:dc="http://purl.org/dc/elements/1.1/"
   xmlns:cc="http://creativecommons.org/ns#"
   xmlns:rdf="http://www.w3.org/1999/02/22-rdf-syntax-ns#"
   xmlns:svg="http://www.w3.org/2000/svg"
   xmlns="http://www.w3.org/2000/svg"
   xmlns:sodipodi="http://sodipodi.sourceforge.net/DTD/sodipodi-0.dtd"
   xmlns:inkscape="http://www.inkscape.org/namespaces/inkscape"
   version="1.0"
   width="750.50146"
   height="168.00034"
   viewBox="0 0 7505.0147 1680.0034"
   preserveAspectRatio="xMidYMid meet"
   id="svg88"
   sodipodi:docname="header_2019.svg"
   inkscape:version="0.92.2 5c3e80d, 2017-08-06">
  <metadata
     id="metadata94">
    <rdf:RDF>
      <cc:Work
         rdf:about="">
        <dc:format>image/svg+xml</dc:format>
        <dc:type
           rdf:resource="http://purl.org/dc/dcmitype/StillImage" />
        <dc:title></dc:title>
      </cc:Work>
    </rdf:RDF>
  </metadata>
  <defs
     id="defs92" />
  <sodipodi:namedview
     pagecolor="#ffffff"
     bordercolor="#666666"
     borderopacity="1"
     objecttolerance="10"
     gridtolerance="10"
     guidetolerance="10"
     inkscape:pageopacity="0"
     inkscape:pageshadow="2"
     inkscape:window-width="1202"
     inkscape:window-height="739"
     id="namedview90"
     showgrid="false"
     inkscape:zoom="0.85089195"
     inkscape:cx="450.92693"
     inkscape:cy="174.22097"
     inkscape:window-x="0"
     inkscape:window-y="0"
     inkscape:window-maximized="0"
     inkscape:current-layer="layer112"
     fit-margin-top="0"
     fit-margin-left="0"
     fit-margin-right="0"
     fit-margin-bottom="0" />
  <g
     id="layer101"
     style="fill:#065fa0;stroke:none"
     transform="translate(0,-5829.9967)">
    <path
       d="M 0,6670 V 0 h 3750 3750 v 6670 6670 H 3750 0 Z"
       id="path2"
       inkscape:connector-curvature="0" />
  </g>
  <g
     id="layer102"
     style="fill:#0259ad;stroke:none"
     transform="translate(0,-5829.9967)">
    <path
       d="M 0,9760 V 6180 h 719 c 396,0 722,-3 724,-7 3,-5 -321,-7 -719,-5 L 0,6170 V 3085 0 h 3750 3750 v 3085 3085 l -755,-2 c -498,-2 -755,0 -755,7 0,7 257,9 755,7 l 755,-2 v 3580 3580 H 3750 0 Z M 1498,6160 c 47,-64 49,-70 26,-70 -8,0 -13,4 -9,10 3,5 -1,17 -10,27 -25,28 -65,93 -57,92 4,0 26,-26 50,-59 z m 122,50 c 0,-5 -2,-10 -4,-10 -3,0 -8,5 -11,10 -3,6 -1,10 4,10 6,0 11,-4 11,-10 z m 335,0 c -27,-12 -35,-12 -35,0 0,6 12,10 28,9 24,0 25,-1 7,-9 z m 205,0 c 0,-5 -5,-10 -11,-10 -5,0 -7,5 -4,10 3,6 8,10 11,10 2,0 4,-4 4,-10 z m 129,-32 c -1,-24 -4,-33 -6,-22 -4,20 -10,21 -66,18 -59,-3 -55,-1 21,12 35,5 43,20 15,27 -11,3 -7,5 10,6 26,1 27,-1 26,-41 z m 176,33 c -11,-5 -23,-7 -26,-5 -11,6 -17,-19 -13,-53 2,-18 -1,-35 -6,-38 -6,-4 -10,15 -10,49 v 56 l 38,-1 c 29,0 33,-2 17,-8 z m 122,3 c -3,-3 -12,-4 -19,-1 -8,3 -5,6 6,6 11,1 17,-2 13,-5 z m 724,-27 c 10,-36 4,-34 -15,4 -10,19 -11,29 -4,27 7,-3 15,-16 19,-31 z m 229,-6 c 88,0 90,0 90,-8 0,-5 -36,-7 -80,-5 -69,3 -79,1 -74,-12 3,-9 10,-16 15,-16 5,0 9,-5 9,-11 0,-19 -20,2 -40,41 -24,48 -25,62 -2,33 14,-18 27,-22 82,-22 z m 108,14 c 3,-18 3,-18 -10,-4 -7,9 -20,19 -28,23 -8,3 -4,4 10,3 16,-1 26,-9 28,-22 z m 180,18 c -10,-2 -26,-2 -35,0 -10,3 -2,5 17,5 19,0 27,-2 18,-5 z m 1032,-58 v -65 h -36 c -21,0 -33,4 -29,10 3,6 17,10 31,10 22,0 24,4 24,49 0,46 -2,50 -27,54 -26,4 -26,4 5,6 l 32,1 z m -2273,13 c -3,-7 -5,-2 -5,12 0,14 2,19 5,13 2,-7 2,-19 0,-25 z m -677,8 c 19,-1 -36,-3 -122,-4 -87,-1 -158,1 -158,6 0,6 199,6 280,-2 z m 64,-34 c -10,-14 -19,-21 -21,-15 -3,7 -12,9 -21,6 -15,-6 -15,-4 -4,10 8,9 20,13 29,10 12,-5 15,-2 10,10 -3,8 -1,18 6,20 20,7 20,-12 1,-41 z m 168,26 c -7,-7 -12,-8 -12,-2 0,14 12,26 19,19 2,-3 -1,-11 -7,-17 z m 413,7 c -23,-8 -85,-10 -85,-3 0,4 21,8 48,7 26,0 43,-2 37,-4 z m 735,-10 c 9,-10 9,-15 1,-15 -6,0 -11,4 -11,10 0,6 -106,11 -282,13 l -283,2 281,3 c 240,2 283,0 294,-13 z m 1043,8 c -487,-3 -492,-3 -498,-24 -9,-27 -16,-20 -8,9 l 5,22 497,-2 496,-3 z m -2620,-34 42,-1 -34,-8 c -41,-10 -61,-4 -60,19 0,10 2,11 6,4 2,-7 23,-13 46,-14 z m 557,-11 c 0,-5 -4,-8 -10,-8 -5,0 -10,10 -10,23 0,18 2,19 10,7 5,-8 10,-18 10,-22 z m 1410,6 c 13,-33 13,-44 -1,-44 -5,0 -7,5 -4,10 3,6 -1,17 -9,26 -18,18 -21,34 -6,34 6,0 15,-12 20,-26 z m 1147,20 c -3,-3 -12,-4 -19,-1 -8,3 -5,6 6,6 11,1 17,-2 13,-5 z m -2240,-26 c -3,-8 -6,-5 -6,6 -1,11 2,17 5,13 3,-3 4,-12 1,-19 z m 930,5 c -4,-3 -7,0 -7,7 0,7 3,10 7,7 3,-4 3,-10 0,-14 z m -1401,-18 c -1,-25 -7,-31 -19,-19 -6,6 9,44 17,44 2,0 3,-11 2,-25 z m 174,-5 c 0,-14 -7,-20 -22,-20 -21,0 -21,0 -2,19 24,25 24,25 24,1 z m 1027,13 c -4,-3 -10,-3 -14,0 -3,4 0,7 7,7 7,0 10,-3 7,-7 z m 300,0 c -4,-3 -10,-3 -14,0 -3,4 0,7 7,7 7,0 10,-3 7,-7 z m 2526,0 c -13,-2 -33,-2 -45,0 -13,2 -3,4 22,4 25,0 35,-2 23,-4 z m -2299,-19 c 3,-8 2,-12 -4,-9 -6,3 -10,10 -10,16 0,14 7,11 14,-7 z m -2129,-4 c 3,-5 4,-10 1,-10 -3,0 -8,5 -11,10 -3,6 -4,10 -1,10 3,0 8,-4 11,-10 z m 740,0 c 3,-5 -1,-10 -10,-10 -9,0 -13,5 -10,10 3,6 8,10 10,10 2,0 7,-4 10,-10 z m 135,-2 c 0,-4 -9,-8 -21,-8 -11,0 -18,4 -15,8 7,11 36,11 36,0 z m 765,2 c 3,-5 -1,-10 -10,-10 -9,0 -13,5 -10,10 3,6 8,10 10,10 2,0 7,-4 10,-10 z m 170,0 c 3,-5 -1,-10 -9,-10 -9,0 -16,5 -16,10 0,6 4,10 9,10 6,0 13,-4 16,-10 z"
       id="path5"
       inkscape:connector-curvature="0" />
  </g>
  <g
     id="layer103"
     style="fill:#039d7a;stroke:none"
     transform="translate(0,-5829.9967)">
    <path
       d="M 0,9780 V 6220 l 728,-1 h 727 l 43,-59 c 23,-32 42,-61 42,-64 0,-3 -347,-5 -770,-4 L 0,6095 V 3048 0 h 3750 3750 v 3048 3047 h -752 -753 l -3,63 -3,62 h 756 755 v 3560 3560 H 3750 0 Z M 1630,6210 c 0,-5 -4,-10 -9,-10 -6,0 -13,5 -16,10 -3,6 1,10 9,10 9,0 16,-4 16,-10 z m 363,-27 c -8,-21 -21,-45 -29,-54 -8,-8 -14,-21 -14,-27 0,-9 -34,-12 -117,-12 -110,1 -120,2 -145,25 -27,23 -39,53 -16,39 7,-4 8,-3 4,4 -4,6 -13,9 -21,6 -9,-4 -18,1 -22,12 -4,10 -2,19 5,22 7,2 10,8 6,13 -3,5 71,9 180,9 h 185 z m 296,-28 -1,-65 h -94 c -51,0 -95,4 -98,9 -3,5 2,19 12,32 10,13 22,32 25,42 4,11 12,15 19,11 10,-6 11,-5 1,8 -19,23 -6,28 69,28 h 68 z m 301,0 v -66 l -87,3 -88,3 -3,63 -3,62 h 91 90 z m 716,48 c 3,-10 15,-39 28,-65 l 24,-48 h -319 c -206,0 -319,4 -320,10 0,6 0,33 0,60 0,28 0,52 0,55 1,3 132,5 291,5 268,0 291,-1 296,-17 z m 339,-15 c -1,-14 2,-25 6,-22 10,6 26,-17 34,-49 l 7,-27 h -95 c -81,0 -96,3 -101,18 -3,9 -17,35 -31,57 -14,22 -25,43 -25,47 0,3 46,6 103,5 l 102,-2 z m 1215,-33 v -65 l -510,2 -510,3 -30,63 -29,62 h 539 540 z"
       id="path8"
       inkscape:connector-curvature="0" />
    <path
       d="m 1955,6190 c 4,-6 11,-8 16,-5 14,9 11,15 -7,15 -8,0 -12,-5 -9,-10 z"
       id="path10"
       inkscape:connector-curvature="0" />
    <path
       d="m 1923,6113 c 4,-3 10,-3 14,0 3,4 0,7 -7,7 -7,0 -10,-3 -7,-7 z"
       id="path12"
       inkscape:connector-curvature="0" />
    <path
       d="m 2560,6160 c 0,-7 3,-10 7,-7 3,4 3,10 0,14 -4,3 -7,0 -7,-7 z"
       id="path14"
       inkscape:connector-curvature="0" />
    <path
       d="m 2560,6120 c 0,-7 3,-10 7,-7 3,4 3,10 0,14 -4,3 -7,0 -7,-7 z"
       id="path16"
       inkscape:connector-curvature="0" />
    <path
       d="m 3280,6190 c 0,-7 3,-10 7,-7 3,4 3,10 0,14 -4,3 -7,0 -7,-7 z"
       id="path18"
       inkscape:connector-curvature="0" />
    <path
       d="m 3494,6158 c -4,-7 -3,-8 4,-4 12,7 16,16 8,16 -3,0 -8,-5 -12,-12 z"
       id="path20"
       inkscape:connector-curvature="0" />
    <path
       d="m 4830,6190 c 0,-7 3,-10 7,-7 3,4 3,10 0,14 -4,3 -7,0 -7,-7 z"
       id="path22"
       inkscape:connector-curvature="0" />
    <path
       d="m 6143,6163 c 4,-3 10,-3 14,0 3,4 0,7 -7,7 -7,0 -10,-3 -7,-7 z"
       id="path24"
       inkscape:connector-curvature="0" />
  </g>
  <g
     id="layer104"
     style="fill:#573b98;stroke:none"
     transform="translate(0,-5829.9967)">
    <path
       d="M 0,10035 V 6730 h 760 760 v -60 -60 H 760 0 v -195 -195 l 728,-1 h 727 l 43,-59 c 23,-32 42,-61 42,-64 0,-3 -347,-5 -770,-4 L 0,6095 V 3048 0 h 3750 3750 v 3048 3047 h -752 -753 l -3,63 -3,62 h 756 755 v 195 195 h -899 -899 l -4,60 -3,60 h 903 902 v 3305 3305 H 3750 0 Z M 2290,6670 v -60 h -95 -95 v 60 60 h 95 95 z m 300,0 v -60 h -90 -90 v 60 60 h 90 90 z m 480,0 30,-60 h -190 -190 v 60 60 h 160 160 z m 210,0 c 0,-56 -2,-60 -22,-60 -23,0 -30,11 -64,88 l -14,32 h 50 50 z m 600,0 v -60 h -240 -240 v 60 60 h 240 240 z m 980,0 v -60 h -430 -430 v 60 60 h 430 430 z m 370,0 v -60 h -125 -125 v 60 60 h 125 125 z M 1630,6210 c 0,-5 -4,-10 -9,-10 -6,0 -13,5 -16,10 -3,6 1,10 9,10 9,0 16,-4 16,-10 z m 363,-27 c -8,-21 -21,-45 -29,-54 -8,-8 -14,-21 -14,-27 0,-9 -34,-12 -117,-12 -110,1 -120,2 -145,25 -27,23 -39,53 -16,39 7,-4 8,-3 4,4 -4,6 -13,9 -21,6 -9,-4 -18,1 -22,12 -4,10 -2,19 5,22 7,2 10,8 6,13 -3,5 71,9 180,9 h 185 z m 296,-28 -1,-65 h -94 c -51,0 -95,4 -98,9 -3,5 2,19 12,32 10,13 22,32 25,42 4,11 12,15 19,11 10,-6 11,-5 1,8 -19,23 -6,28 69,28 h 68 z m 301,0 v -66 l -87,3 -88,3 -3,63 -3,62 h 91 90 z m 716,48 c 3,-10 15,-39 28,-65 l 24,-48 h -319 c -206,0 -319,4 -320,10 0,6 0,33 0,60 0,28 0,52 0,55 1,3 132,5 291,5 268,0 291,-1 296,-17 z m 339,-15 c -1,-14 2,-25 6,-22 10,6 26,-17 34,-49 l 7,-27 h -95 c -81,0 -96,3 -101,18 -3,9 -17,35 -31,57 -14,22 -25,43 -25,47 0,3 46,6 103,5 l 102,-2 z m 1215,-33 v -65 l -510,2 -510,3 -30,63 -29,62 h 539 540 z"
       id="path27"
       inkscape:connector-curvature="0" />
    <path
       d="m 1955,6190 c 4,-6 11,-8 16,-5 14,9 11,15 -7,15 -8,0 -12,-5 -9,-10 z"
       id="path29"
       inkscape:connector-curvature="0" />
    <path
       d="m 1923,6113 c 4,-3 10,-3 14,0 3,4 0,7 -7,7 -7,0 -10,-3 -7,-7 z"
       id="path31"
       inkscape:connector-curvature="0" />
    <path
       d="m 2560,6160 c 0,-7 3,-10 7,-7 3,4 3,10 0,14 -4,3 -7,0 -7,-7 z"
       id="path33"
       inkscape:connector-curvature="0" />
    <path
       d="m 2560,6120 c 0,-7 3,-10 7,-7 3,4 3,10 0,14 -4,3 -7,0 -7,-7 z"
       id="path35"
       inkscape:connector-curvature="0" />
    <path
       d="m 3280,6190 c 0,-7 3,-10 7,-7 3,4 3,10 0,14 -4,3 -7,0 -7,-7 z"
       id="path37"
       inkscape:connector-curvature="0" />
    <path
       d="m 3494,6158 c -4,-7 -3,-8 4,-4 12,7 16,16 8,16 -3,0 -8,-5 -12,-12 z"
       id="path39"
       inkscape:connector-curvature="0" />
    <path
       d="m 4830,6190 c 0,-7 3,-10 7,-7 3,4 3,10 0,14 -4,3 -7,0 -7,-7 z"
       id="path41"
       inkscape:connector-curvature="0" />
    <path
       d="m 6143,6163 c 4,-3 10,-3 14,0 3,4 0,7 -7,7 -7,0 -10,-3 -7,-7 z"
       id="path43"
       inkscape:connector-curvature="0" />
  </g>
  <g
     id="layer105"
     style="fill:#0f5ec5;stroke:none"
     transform="translate(0,-5829.9967)">
    <path
       d="M 0,10035 V 6730 h 760 760 v -60 -60 H 760 0 v -195 -195 l 728,-1 h 727 l 43,-59 c 23,-32 42,-61 42,-64 0,-3 -347,-5 -770,-4 l -770,3 v -65 -65 l 807,3 c 534,1 810,-1 817,-8 7,-7 -256,-10 -807,-10 H 0 V 2975 0 H 3750 7500 V 2975 5950 H 5706 c -1192,0 -1797,3 -1801,10 -4,7 589,9 1794,8 l 1801,-3 v 65 65 h -752 -753 l -3,63 -3,62 h 756 755 v 195 195 h -899 -899 l -4,60 -3,60 h 903 902 v 3305 3305 H 3750 0 Z M 2290,6670 v -60 h -95 -95 v 60 60 h 95 95 z m 300,0 v -60 h -90 -90 v 60 60 h 90 90 z m 480,0 30,-60 h -190 -190 v 60 60 h 160 160 z m 210,0 c 0,-56 -2,-60 -22,-60 -23,0 -30,11 -64,88 l -14,32 h 50 50 z m 600,0 v -60 h -240 -240 v 60 60 h 240 240 z m 980,0 v -60 h -430 -430 v 60 60 h 430 430 z m 370,0 v -60 h -125 -125 v 60 60 h 125 125 z M 1630,6210 c 0,-5 -4,-10 -9,-10 -6,0 -13,5 -16,10 -3,6 1,10 9,10 9,0 16,-4 16,-10 z m 363,-27 c -8,-21 -21,-45 -29,-54 -8,-8 -14,-21 -14,-27 0,-9 -34,-12 -117,-12 -110,1 -120,2 -145,25 -27,23 -39,53 -16,39 7,-4 8,-3 4,4 -4,6 -13,9 -21,6 -9,-4 -18,1 -22,12 -4,10 -2,19 5,22 7,2 10,8 6,13 -3,5 71,9 180,9 h 185 z m 296,-28 -1,-65 h -94 c -51,0 -95,4 -98,9 -3,5 2,19 12,32 10,13 22,32 25,42 4,11 12,15 19,11 10,-6 11,-5 1,8 -19,23 -6,28 69,28 h 68 z m 301,0 v -66 l -87,3 -88,3 -3,63 -3,62 h 91 90 z m 716,48 c 3,-10 15,-39 28,-65 l 24,-48 h -319 c -206,0 -319,4 -320,10 0,6 0,33 0,60 0,28 0,52 0,55 1,3 132,5 291,5 268,0 291,-1 296,-17 z m 339,-15 c -1,-14 2,-25 6,-22 10,6 26,-17 34,-49 l 7,-27 h -95 c -81,0 -96,3 -101,18 -3,9 -17,35 -31,57 -14,22 -25,43 -25,47 0,3 46,6 103,5 l 102,-2 z m 1215,-33 v -65 l -510,2 -510,3 -30,63 -29,62 h 539 540 z M 1815,5960 c 3,-5 1,-10 -4,-10 -6,0 -11,5 -11,10 0,6 2,10 4,10 3,0 8,-4 11,-10 z m 760,0 c 4,-7 -85,-10 -260,-10 -175,0 -264,3 -260,10 4,6 102,10 260,10 158,0 256,-4 260,-10 z m 1185,0 c 0,-7 -180,-10 -520,-10 -340,0 -520,3 -520,10 0,7 180,10 520,10 340,0 520,-3 520,-10 z m -1893,-7 c -4,-3 -10,-3 -14,0 -3,4 0,7 7,7 7,0 10,-3 7,-7 z m 163,-13 c -6,-11 -13,-20 -16,-20 -2,0 0,9 6,20 6,11 13,20 16,20 2,0 0,-9 -6,-20 z m -168,-18 c -7,-2 -12,-11 -12,-20 0,-12 -3,-13 -11,-5 -13,13 10,45 26,35 5,-3 4,-7 -3,-10 z m -205,-19 c -4,-3 -7,0 -7,7 0,7 3,10 7,7 3,-4 3,-10 0,-14 z m 2120,0 c -4,-3 -7,0 -7,7 0,7 3,10 7,7 3,-4 3,-10 0,-14 z m 183,-38 c 0,-5 -5,-3 -10,5 -5,8 -10,20 -10,25 0,6 5,3 10,-5 5,-8 10,-19 10,-25 z m -1979,-18 c -10,-9 -11,-8 -5,6 3,10 9,15 12,12 3,-3 0,-11 -7,-18 z m -251,-3 c 0,-2 -7,-4 -15,-4 -8,0 -15,4 -15,10 0,5 7,7 15,4 8,-4 15,-8 15,-10 z m -103,-1 c -4,-3 -10,-3 -14,0 -3,4 0,7 7,7 7,0 10,-3 7,-7 z"
       id="path46"
       inkscape:connector-curvature="0" />
    <path
       d="m 1955,6190 c 4,-6 11,-8 16,-5 14,9 11,15 -7,15 -8,0 -12,-5 -9,-10 z"
       id="path48"
       inkscape:connector-curvature="0" />
    <path
       d="m 1923,6113 c 4,-3 10,-3 14,0 3,4 0,7 -7,7 -7,0 -10,-3 -7,-7 z"
       id="path50"
       inkscape:connector-curvature="0" />
    <path
       d="m 2560,6160 c 0,-7 3,-10 7,-7 3,4 3,10 0,14 -4,3 -7,0 -7,-7 z"
       id="path52"
       inkscape:connector-curvature="0" />
    <path
       d="m 2560,6120 c 0,-7 3,-10 7,-7 3,4 3,10 0,14 -4,3 -7,0 -7,-7 z"
       id="path54"
       inkscape:connector-curvature="0" />
    <path
       d="m 3280,6190 c 0,-7 3,-10 7,-7 3,4 3,10 0,14 -4,3 -7,0 -7,-7 z"
       id="path56"
       inkscape:connector-curvature="0" />
    <path
       d="m 3494,6158 c -4,-7 -3,-8 4,-4 12,7 16,16 8,16 -3,0 -8,-5 -12,-12 z"
       id="path58"
       inkscape:connector-curvature="0" />
    <path
       d="m 4830,6190 c 0,-7 3,-10 7,-7 3,4 3,10 0,14 -4,3 -7,0 -7,-7 z"
       id="path60"
       inkscape:connector-curvature="0" />
    <path
       d="m 6143,6163 c 4,-3 10,-3 14,0 3,4 0,7 -7,7 -7,0 -10,-3 -7,-7 z"
       id="path62"
       inkscape:connector-curvature="0" />
  </g>
  <g
     id="layer106"
     style="fill:#0388a9;stroke:none"
     transform="translate(0,-5829.9967)">
    <path
       d="M 0,10035 V 6730 h 760 760 v -60 -60 H 760 0 v -195 -195 l 728,-1 h 727 l 43,-59 c 23,-32 42,-61 42,-64 0,-3 -347,-5 -770,-4 l -770,3 v -65 -65 l 807,3 c 534,1 810,-1 817,-8 7,-7 -256,-10 -807,-10 H 0 V 2975 0 H 3750 7500 V 2975 5950 H 5706 c -1192,0 -1797,3 -1801,10 -4,7 589,9 1794,8 l 1801,-3 v 65 65 h -752 -753 l -3,63 -3,62 h 756 755 v 195 195 h -899 -899 l -4,60 -3,60 h 903 902 v 3305 3305 H 3750 0 Z M 2290,6670 v -60 h -95 -95 v 60 60 h 95 95 z m 300,0 v -60 h -90 -90 v 60 60 h 90 90 z m 480,0 30,-60 h -190 -190 v 60 60 h 160 160 z m 210,0 c 0,-56 -2,-60 -22,-60 -23,0 -30,11 -64,88 l -14,32 h 50 50 z m 600,0 v -60 h -240 -240 v 60 60 h 240 240 z m 980,0 v -60 h -430 -430 v 60 60 h 430 430 z m 370,0 v -60 h -125 -125 v 60 60 h 125 125 z M 2001,6198 c -3,-13 -16,-42 -29,-66 l -23,-43 -126,3 -127,3 -49,63 -49,62 h 205 205 z m 289,-43 v -65 h -93 c -52,0 -96,3 -100,6 -3,4 8,33 24,65 l 31,59 h 69 69 z m 300,0 v -66 l -87,3 -88,3 -3,63 -3,62 h 91 90 z m 740,5 c 16,-33 30,-62 30,-65 0,-10 -640,-5 -641,5 0,6 0,33 0,60 0,28 0,52 0,55 1,3 131,5 291,5 h 290 z m 335,8 c 14,-29 25,-59 25,-65 0,-10 -26,-13 -95,-13 h -95 l -30,60 c -16,33 -30,62 -30,65 0,3 45,5 100,5 h 101 z m 1195,-13 v -65 l -512,2 -513,3 -33,63 -33,62 h 545 546 z M 1815,5960 c 3,-5 1,-10 -4,-10 -6,0 -11,5 -11,10 0,6 2,10 4,10 3,0 8,-4 11,-10 z m 760,0 c 4,-7 -85,-10 -260,-10 -175,0 -264,3 -260,10 4,6 102,10 260,10 158,0 256,-4 260,-10 z m 1185,0 c 0,-7 -180,-10 -520,-10 -340,0 -520,3 -520,10 0,7 180,10 520,10 340,0 520,-3 520,-10 z m -1893,-7 c -4,-3 -10,-3 -14,0 -3,4 0,7 7,7 7,0 10,-3 7,-7 z m 163,-13 c -6,-11 -13,-20 -16,-20 -2,0 0,9 6,20 6,11 13,20 16,20 2,0 0,-9 -6,-20 z m -168,-18 c -7,-2 -12,-11 -12,-20 0,-12 -3,-13 -11,-5 -13,13 10,45 26,35 5,-3 4,-7 -3,-10 z m -205,-19 c -4,-3 -7,0 -7,7 0,7 3,10 7,7 3,-4 3,-10 0,-14 z m 2120,0 c -4,-3 -7,0 -7,7 0,7 3,10 7,7 3,-4 3,-10 0,-14 z m 183,-38 c 0,-5 -5,-3 -10,5 -5,8 -10,20 -10,25 0,6 5,3 10,-5 5,-8 10,-19 10,-25 z m -1979,-18 c -10,-9 -11,-8 -5,6 3,10 9,15 12,12 3,-3 0,-11 -7,-18 z m -251,-3 c 0,-2 -7,-4 -15,-4 -8,0 -15,4 -15,10 0,5 7,7 15,4 8,-4 15,-8 15,-10 z m -103,-1 c -4,-3 -10,-3 -14,0 -3,4 0,7 7,7 7,0 10,-3 7,-7 z"
       id="path65"
       inkscape:connector-curvature="0" />
  </g>
  <g
     id="layer107"
     style="fill:#6745a4;stroke:none"
     transform="translate(0,-5829.9967)">
    <path
       d="M 0,10035 V 6730 h 760 760 v -60 -60 H 760 0 v -67 -68 l 634,3 634,2 46,-57 c 25,-32 46,-61 46,-66 0,-4 -306,-6 -680,-5 l -680,3 v -67 -68 l 728,-1 h 727 l 43,-59 c 23,-32 42,-61 42,-64 0,-3 -347,-5 -770,-4 l -770,3 v -65 -65 l 807,3 c 534,1 810,-1 817,-8 7,-7 -256,-10 -807,-10 H 0 V 2975 0 H 3750 7500 V 2975 5950 H 5706 c -1192,0 -1797,3 -1801,10 -4,7 589,9 1794,8 l 1801,-3 v 65 65 h -752 -753 l -3,63 -3,62 h 756 755 v 68 67 l -900,-3 -900,-2 v 65 65 l 900,-2 900,-3 v 68 67 h -899 -899 l -4,60 -3,60 h 903 902 v 3305 3305 H 3750 0 Z M 2290,6670 v -60 h -95 -95 v 60 60 h 95 95 z m 300,0 v -60 h -90 -90 v 60 60 h 90 90 z m 480,0 30,-60 h -190 -190 v 60 60 h 160 160 z m 210,0 c 0,-56 -2,-60 -22,-60 -23,0 -30,11 -64,88 l -14,32 h 50 50 z m 600,0 v -60 h -240 -240 v 60 60 h 240 240 z m 980,0 v -60 h -430 -430 v 60 60 h 430 430 z m 370,0 v -60 h -125 -125 v 60 60 h 125 125 z M 2290,6415 v -65 h -389 -389 l -41,51 c -23,29 -41,58 -41,65 0,12 73,14 430,14 h 430 z m 300,0 v -65 h -90 -90 v 65 65 h 90 90 z m 607,8 c 15,-32 29,-61 31,-65 2,-5 -111,-8 -252,-8 h -256 v 65 65 h 225 225 z m 346,2 c 15,-31 27,-60 27,-65 0,-6 -36,-10 -85,-10 h -85 v 65 65 h 58 58 z m 337,-10 v -65 h -86 -85 l -25,55 c -13,31 -24,60 -24,65 0,6 45,10 110,10 h 110 z m 980,0 v -65 h -430 -430 v 65 65 h 430 430 z m 370,0 v -66 l -122,3 -123,3 -3,63 -3,62 h 126 125 z m 346,15 c 1,-84 5,-81 -115,-78 l -106,3 -3,63 -3,63 113,-3 113,-3 z M 2001,6198 c -3,-13 -16,-42 -29,-66 l -23,-43 -126,3 -127,3 -49,63 -49,62 h 205 205 z m 289,-43 v -65 h -93 c -52,0 -96,3 -100,6 -3,4 8,33 24,65 l 31,59 h 69 69 z m 300,0 v -66 l -87,3 -88,3 -3,63 -3,62 h 91 90 z m 740,5 c 16,-33 30,-62 30,-65 0,-10 -640,-5 -641,5 0,6 0,33 0,60 0,28 0,52 0,55 1,3 131,5 291,5 h 290 z m 335,8 c 14,-29 25,-59 25,-65 0,-10 -26,-13 -95,-13 h -95 l -30,60 c -16,33 -30,62 -30,65 0,3 45,5 100,5 h 101 z m 1195,-13 v -65 l -512,2 -513,3 -33,63 -33,62 h 545 546 z M 1815,5960 c 3,-5 1,-10 -4,-10 -6,0 -11,5 -11,10 0,6 2,10 4,10 3,0 8,-4 11,-10 z m 760,0 c 4,-7 -85,-10 -260,-10 -175,0 -264,3 -260,10 4,6 102,10 260,10 158,0 256,-4 260,-10 z m 1185,0 c 0,-7 -180,-10 -520,-10 -340,0 -520,3 -520,10 0,7 180,10 520,10 340,0 520,-3 520,-10 z m -1893,-7 c -4,-3 -10,-3 -14,0 -3,4 0,7 7,7 7,0 10,-3 7,-7 z m 163,-13 c -6,-11 -13,-20 -16,-20 -2,0 0,9 6,20 6,11 13,20 16,20 2,0 0,-9 -6,-20 z m -168,-18 c -7,-2 -12,-11 -12,-20 0,-12 -3,-13 -11,-5 -13,13 10,45 26,35 5,-3 4,-7 -3,-10 z m -205,-19 c -4,-3 -7,0 -7,7 0,7 3,10 7,7 3,-4 3,-10 0,-14 z m 2120,0 c -4,-3 -7,0 -7,7 0,7 3,10 7,7 3,-4 3,-10 0,-14 z m 183,-38 c 0,-5 -5,-3 -10,5 -5,8 -10,20 -10,25 0,6 5,3 10,-5 5,-8 10,-19 10,-25 z m -1979,-18 c -10,-9 -11,-8 -5,6 3,10 9,15 12,12 3,-3 0,-11 -7,-18 z m -251,-3 c 0,-2 -7,-4 -15,-4 -8,0 -15,4 -15,10 0,5 7,7 15,4 8,-4 15,-8 15,-10 z m -103,-1 c -4,-3 -10,-3 -14,0 -3,4 0,7 7,7 7,0 10,-3 7,-7 z"
       id="path68"
       inkscape:connector-curvature="0" />
  </g>
  <g
     id="layer108"
     style="fill:#7cbe41;stroke:none"
     transform="translate(0,-5829.9967)">
    <path
       d="M 0,10035 V 6730 h 760 760 v -60 -60 H 760 0 v -67 -68 l 634,3 634,2 46,-57 c 25,-32 46,-61 46,-66 0,-4 -306,-6 -680,-5 l -680,3 v -67 -68 l 728,-1 h 727 l 43,-59 c 23,-32 42,-61 42,-64 0,-3 -347,-5 -770,-4 l -770,3 v -65 -65 l 818,3 818,2 47,-65 47,-65 H 865 0 V 2920 0 H 3750 7500 V 2920 5840 H 5727 3954 l -27,55 c -15,31 -27,60 -27,65 0,7 625,9 1800,8 l 1800,-3 v 65 65 h -752 -753 l -3,63 -3,62 h 756 755 v 68 67 l -900,-3 -900,-2 v 65 65 l 900,-2 900,-3 v 68 67 h -899 -899 l -4,60 -3,60 h 903 902 v 3305 3305 H 3750 0 Z M 2290,6670 v -60 h -95 -95 v 60 60 h 95 95 z m 300,0 v -60 h -90 -90 v 60 60 h 90 90 z m 480,0 30,-60 h -190 -190 v 60 60 h 160 160 z m 210,0 c 0,-56 -2,-60 -22,-60 -23,0 -30,11 -64,88 l -14,32 h 50 50 z m 600,0 v -60 h -240 -240 v 60 60 h 240 240 z m 980,0 v -60 h -430 -430 v 60 60 h 430 430 z m 370,0 v -60 h -125 -125 v 60 60 h 125 125 z M 2290,6415 v -65 h -389 -389 l -41,51 c -23,29 -41,58 -41,65 0,12 73,14 430,14 h 430 z m 300,0 v -65 h -90 -90 v 65 65 h 90 90 z m 607,8 c 15,-32 29,-61 31,-65 2,-5 -111,-8 -252,-8 h -256 v 65 65 h 225 225 z m 346,2 c 15,-31 27,-60 27,-65 0,-6 -36,-10 -85,-10 h -85 v 65 65 h 58 58 z m 337,-10 v -65 h -86 -85 l -25,55 c -13,31 -24,60 -24,65 0,6 45,10 110,10 h 110 z m 980,0 v -65 h -430 -430 v 65 65 h 430 430 z m 370,0 v -66 l -122,3 -123,3 -3,63 -3,62 h 126 125 z m 346,15 c 1,-84 5,-81 -115,-78 l -106,3 -3,63 -3,63 113,-3 113,-3 z m -3591,-272 -34,-63 h -127 -128 l -49,63 -49,62 h 211 210 z m 305,-3 v -65 h -93 c -52,0 -96,3 -100,6 -3,4 8,33 24,65 l 31,59 h 69 69 z m 300,0 v -66 l -87,3 -88,3 -3,63 -3,62 h 91 90 z m 740,5 c 16,-33 30,-62 30,-65 0,-10 -640,-5 -641,5 0,6 0,33 0,60 0,28 0,52 0,55 1,3 131,5 291,5 h 290 z m 335,8 c 14,-29 25,-59 25,-65 0,-10 -26,-13 -95,-13 h -95 l -30,60 c -16,33 -30,62 -30,65 0,3 45,5 100,5 h 101 z m 1195,-13 v -65 l -512,2 -513,3 -33,63 -33,62 h 545 546 z M 1880,5958 c 0,-7 -8,-25 -18,-40 l -18,-28 -22,30 c -31,41 -28,50 18,50 25,0 40,-5 40,-12 z m 710,-53 v -65 h -315 c -173,0 -315,2 -315,4 0,5 32,62 57,104 13,22 14,22 293,22 h 280 z m 1200,-3 29,-62 -552,2 -552,3 -1,50 c 0,28 1,56 4,63 3,10 113,12 524,10 l 520,-3 z"
       id="path71"
       inkscape:connector-curvature="0" />
  </g>
  <g
     id="layer109"
     style="fill:#e57725;stroke:none"
     transform="translate(0,-5829.9967)">
    <path
       d="M 0,10163 V 6985 l 760,3 760,2 v -65 -65 l -760,2 -760,3 v -67 -68 h 760 760 v -60 -60 H 760 0 v -67 -68 l 634,3 634,2 46,-57 c 25,-32 46,-61 46,-66 0,-4 -306,-6 -680,-5 l -680,3 v -67 -68 l 728,-1 h 727 l 43,-59 c 23,-32 42,-61 42,-64 0,-3 -347,-5 -770,-4 l -770,3 v -65 -65 l 818,3 818,2 47,-65 47,-65 H 865 0 V 2920 0 H 3750 7500 V 2920 5840 H 5727 3954 l -27,55 c -15,31 -27,60 -27,65 0,7 625,9 1800,8 l 1800,-3 v 65 65 h -752 -753 l -3,63 -3,62 h 756 755 v 68 67 l -900,-3 -900,-2 v 65 65 l 900,-2 900,-3 v 68 67 h -899 -899 l -4,60 -3,60 h 903 902 v 68 67 l -985,-3 c -542,-1 -985,0 -985,2 0,3 16,32 36,65 l 36,61 949,-2 949,-3 v 3178 3177 H 3750 0 Z M 2590,6925 v -65 l -471,2 -471,3 v 55 c 0,30 0,58 1,63 1,4 212,7 471,7 h 470 z m 690,0 v -65 h -280 -280 v 65 65 h 280 280 z m 600,0 v -65 h -240 -240 v 65 65 h 240 240 z m 933,5 c 10,-33 17,-62 17,-65 0,-3 -187,-5 -415,-5 h -415 v 65 65 h 398 399 z m 307,-5 v -65 h -80 -79 l -16,52 c -24,81 -27,78 80,78 h 95 z m 330,54 c 0,-6 -15,-35 -32,-65 l -33,-55 -70,3 -70,3 -3,63 -3,62 h 106 c 69,0 105,-4 105,-11 z M 2290,6670 v -60 h -95 -95 v 60 60 h 95 95 z m 300,0 v -60 h -90 -90 v 60 60 h 90 90 z m 480,0 30,-60 h -190 -190 v 60 60 h 160 160 z m 210,0 c 0,-56 -2,-60 -22,-60 -23,0 -30,11 -64,88 l -14,32 h 50 50 z m 600,0 v -60 h -240 -240 v 60 60 h 240 240 z m 980,0 v -60 h -430 -430 v 60 60 h 430 430 z m 370,0 v -60 h -125 -125 v 60 60 h 125 125 z M 2290,6415 v -65 h -389 -389 l -41,51 c -23,29 -41,58 -41,65 0,12 73,14 430,14 h 430 z m 300,0 v -65 h -90 -90 v 65 65 h 90 90 z m 607,8 c 15,-32 29,-61 31,-65 2,-5 -111,-8 -252,-8 h -256 v 65 65 h 225 225 z m 346,2 c 15,-31 27,-60 27,-65 0,-6 -36,-10 -85,-10 h -85 v 65 65 h 58 58 z m 337,-10 v -65 h -86 -85 l -25,55 c -13,31 -24,60 -24,65 0,6 45,10 110,10 h 110 z m 980,0 v -65 h -430 -430 v 65 65 h 430 430 z m 370,0 v -66 l -122,3 -123,3 -3,63 -3,62 h 126 125 z m 346,15 c 1,-84 5,-81 -115,-78 l -106,3 -3,63 -3,63 113,-3 113,-3 z m -3591,-272 -34,-63 h -127 -128 l -49,63 -49,62 h 211 210 z m 305,-3 v -65 h -93 c -52,0 -96,3 -100,6 -3,4 8,33 24,65 l 31,59 h 69 69 z m 300,0 v -66 l -87,3 -88,3 -3,63 -3,62 h 91 90 z m 740,5 c 16,-33 30,-62 30,-65 0,-10 -640,-5 -641,5 0,6 0,33 0,60 0,28 0,52 0,55 1,3 131,5 291,5 h 290 z m 335,8 c 14,-29 25,-59 25,-65 0,-10 -26,-13 -95,-13 h -95 l -30,60 c -16,33 -30,62 -30,65 0,3 45,5 100,5 h 101 z m 1195,-13 v -65 l -512,2 -513,3 -33,63 -33,62 h 545 546 z M 1880,5958 c 0,-7 -8,-25 -18,-40 l -18,-28 -22,30 c -31,41 -28,50 18,50 25,0 40,-5 40,-12 z m 710,-53 v -65 h -315 c -173,0 -315,2 -315,4 0,5 32,62 57,104 13,22 14,22 293,22 h 280 z m 1200,-3 29,-62 -552,2 -552,3 -1,50 c 0,28 1,56 4,63 3,10 113,12 524,10 l 520,-3 z"
       id="path74"
       inkscape:connector-curvature="0" />
  </g>
  <g
     id="layer110"
     style="fill:#d57f44;stroke:none"
     transform="translate(0,-5829.9967)">
    <path
       d="m 2,10423 3,-2918 624,-5 c 609,-5 624,-5 638,-25 26,-37 63,-96 63,-100 0,-3 -299,-5 -665,-5 H 1 v -190 -190 h 759 760 v -65 -65 H 760 -1 l 3,-62 3,-63 758,-3 757,-2 v -60 -60 l -757,-2 -758,-3 -3,-62 -3,-63 h 635 634 l 46,-58 c 25,-31 46,-60 46,-64 0,-5 -306,-8 -680,-8 H -1 l 3,-62 3,-63 725,-3 725,-3 43,-59 c 23,-32 42,-61 42,-64 0,-3 -346,-6 -770,-6 H 0 v -60 -60 h 818 818 l 47,-65 47,-65 -863,-2 L 5,5835 2,2918 0,0 h 3750 3750 l -2,2918 -3,2917 -1770,3 -1771,2 -27,55 c -15,31 -27,60 -27,65 0,7 634,10 1800,10 h 1800 v 60 60 l -752,2 -753,3 -3,62 -3,63 753,2 753,3 3,63 3,62 h -901 -900 v 65 65 h 900 901 l -3,63 -3,62 -897,3 -896,2 -4,60 -3,60 900,2 900,3 3,63 3,62 h -986 c -542,0 -985,2 -985,4 0,3 16,32 36,65 l 36,61 h 949 948 v 190 190 h -754 c -492,0 -756,3 -760,10 -3,6 1,10 11,10 19,0 144,65 159,83 6,7 19,14 30,17 11,2 310,6 665,10 l 645,5 3,2918 2,2917 H 3750 0 Z M 2585,7445 c 1,-27 -2,-56 -8,-62 -7,-10 -130,-13 -553,-13 h -543 l -21,30 c -12,17 -19,30 -15,30 3,0 -3,10 -15,22 -46,50 -62,49 567,46 l 586,-3 z m 688,40 c 4,-8 2,-17 -4,-21 -7,-4 -6,-10 1,-19 6,-8 10,-26 8,-42 l -3,-28 -276,-3 -277,-2 -3,37 c -2,21 -3,50 -1,66 l 3,27 h 274 c 231,0 274,-2 278,-15 z m 594,3 c 5,-7 9,-35 9,-63 l -1,-50 -224,-3 c -128,-1 -228,2 -235,7 -6,6 -10,32 -8,65 l 4,56 h 223 c 166,0 225,-3 232,-12 z m 758,-18 c 8,-16 15,-35 15,-43 0,-8 7,-20 15,-27 8,-7 12,-16 9,-21 -3,-5 -153,-9 -335,-9 h -329 v 65 66 l 305,-1 305,-2 z m 494,-35 1,-65 h -158 -158 l -17,53 c -9,30 -17,59 -17,65 0,9 48,12 174,12 h 174 z m 811,59 c -43,-14 -90,-38 -90,-46 0,-4 -6,-8 -14,-8 -8,0 -28,-11 -44,-25 -16,-13 -32,-22 -35,-18 -4,3 -18,-2 -31,-11 -34,-22 -128,-21 -162,1 -26,17 -114,101 -114,109 0,2 114,4 253,3 138,0 245,-3 237,-5 z m -630,-66 c 0,-5 7,-8 15,-8 8,0 19,-9 25,-20 14,-25 -1,-33 -56,-28 -36,3 -39,6 -42,36 -5,55 3,66 33,45 13,-10 25,-21 25,-25 z M 2590,6925 v -65 l -471,2 -471,3 v 55 c 0,30 0,58 1,63 1,4 212,7 471,7 h 470 z m 690,0 v -65 h -280 -280 v 65 65 h 280 280 z m 600,0 v -65 h -240 -240 v 65 65 h 240 240 z m 933,5 c 10,-33 17,-62 17,-65 0,-3 -187,-5 -415,-5 h -415 v 65 65 h 398 399 z m 307,-5 v -65 h -80 -79 l -16,52 c -24,81 -27,78 80,78 h 95 z m 330,54 c 0,-6 -15,-35 -32,-65 l -33,-55 -70,3 -70,3 -3,63 -3,62 h 106 c 69,0 105,-4 105,-11 z M 2290,6670 v -60 h -95 -95 v 60 60 h 95 95 z m 300,0 v -60 h -90 -90 v 60 60 h 90 90 z m 480,0 30,-60 h -190 -190 v 60 60 h 160 160 z m 210,0 c 0,-56 -2,-60 -22,-60 -23,0 -30,11 -64,88 l -14,32 h 50 50 z m 600,0 v -60 h -240 -240 v 60 60 h 240 240 z m 980,0 v -60 h -430 -430 v 60 60 h 430 430 z m 370,0 v -60 h -125 -125 v 60 60 h 125 125 z M 2290,6415 v -65 h -389 -389 l -41,51 c -23,29 -41,58 -41,65 0,12 73,14 430,14 h 430 z m 300,0 v -65 h -90 -90 v 65 65 h 90 90 z m 607,8 c 15,-32 29,-61 31,-65 2,-5 -111,-8 -252,-8 h -256 v 65 65 h 225 225 z m 346,2 c 15,-31 27,-60 27,-65 0,-6 -36,-10 -85,-10 h -85 v 65 65 h 58 58 z m 337,-10 v -65 h -86 -85 l -25,55 c -13,31 -24,60 -24,65 0,6 45,10 110,10 h 110 z m 980,0 v -65 h -430 -430 v 65 65 h 430 430 z m 370,0 v -66 l -122,3 -123,3 -3,63 -3,62 h 126 125 z m 346,15 c 1,-84 5,-81 -115,-78 l -106,3 -3,63 -3,63 113,-3 113,-3 z m -3591,-272 -34,-63 h -127 -128 l -49,63 -49,62 h 211 210 z m 305,-3 v -65 h -93 c -52,0 -96,3 -100,6 -3,4 8,33 24,65 l 31,59 h 69 69 z m 300,0 v -66 l -87,3 -88,3 -3,63 -3,62 h 91 90 z m 740,5 c 16,-33 30,-62 30,-65 0,-10 -640,-5 -641,5 0,6 0,33 0,60 0,28 0,52 0,55 1,3 131,5 291,5 h 290 z m 335,8 c 14,-29 25,-59 25,-65 0,-10 -26,-13 -95,-13 h -95 l -30,60 c -16,33 -30,62 -30,65 0,3 45,5 100,5 h 101 z m 1195,-13 v -65 l -512,2 -513,3 -33,63 -33,62 h 545 546 z M 1880,5958 c 0,-7 -8,-25 -18,-40 l -18,-28 -22,30 c -31,41 -28,50 18,50 25,0 40,-5 40,-12 z m 710,-53 v -65 h -315 c -173,0 -315,2 -315,4 0,5 32,62 57,104 13,22 14,22 293,22 h 280 z m 1200,-3 29,-62 -552,2 -552,3 -1,50 c 0,28 1,56 4,63 3,10 113,12 524,10 l 520,-3 z"
       id="path77"
       inkscape:connector-curvature="0" />
    <path
       d="m 4583,7453 c 4,-3 10,-3 14,0 3,4 0,7 -7,7 -7,0 -10,-3 -7,-7 z"
       id="path79"
       inkscape:connector-curvature="0" />
  </g>
  <g
     id="layer111"
     style="fill:#fde002;stroke:none"
     transform="translate(0,-5829.9967)">
    <path
       d="m 2,10423 3,-2918 633,-5 633,-5 23,-42 c 14,-23 27,-51 31,-63 6,-20 6,-20 -659,-20 H 1 v -190 -190 h 759 760 v -65 -65 H 760 -1 l 3,-62 3,-63 758,-3 757,-2 v -60 -60 l -757,-2 -758,-3 -3,-62 -3,-63 h 635 634 l 46,-58 c 25,-31 46,-60 46,-64 0,-5 -306,-8 -680,-8 H -1 l 3,-62 3,-63 725,-3 725,-3 43,-59 c 23,-32 42,-61 42,-64 0,-3 -346,-6 -770,-6 H 0 v -60 -60 h 818 818 l 47,-65 47,-65 -863,-2 L 5,5835 2,2918 0,0 h 3750 3750 l -2,2918 -3,2917 -1770,3 -1771,2 -27,55 c -15,31 -27,60 -27,65 0,7 634,10 1800,10 h 1800 v 60 60 l -752,2 -753,3 -3,62 -3,63 753,2 753,3 3,63 3,62 h -901 -900 v 65 65 h 900 901 l -3,63 -3,62 -897,3 -896,2 -4,60 -3,60 900,2 900,3 3,63 3,62 h -986 c -542,0 -985,2 -985,4 0,3 16,32 36,65 l 36,61 h 949 948 v 190 190 h -754 c -415,0 -756,4 -759,9 -3,4 13,17 36,27 24,10 67,35 98,54 l 55,35 660,5 660,5 3,2918 2,2917 H 3750 0 Z M 2591,7473 c 0,-16 1,-44 2,-63 l 2,-35 -566,-3 -565,-2 -36,65 -37,65 h 600 599 z m 687,-35 -3,-63 -276,-3 -277,-2 -3,37 c -2,21 -3,50 -1,66 l 3,27 h 280 280 z m 600,0 -3,-63 -237,-3 -238,-2 v 65 65 h 240 241 z m 769,2 c 11,-33 17,-62 15,-65 -3,-3 -153,-5 -334,-5 h -328 v 65 65 h 314 313 z m 473,-5 v -65 l -162,2 -163,3 -22,63 -22,62 h 184 185 z m 708,0 c -116,-65 -117,-65 -196,-65 h -80 l -69,65 -68,64 265,1 h 265 z m -515,-4 c 26,-25 47,-49 47,-53 0,-5 -26,-8 -57,-6 l -58,3 -3,58 c -4,68 -3,68 71,-2 z M 2590,6925 v -65 l -471,2 -471,3 v 55 c 0,30 0,58 1,63 1,4 212,7 471,7 h 470 z m 690,0 v -65 h -280 -280 v 65 65 h 280 280 z m 600,0 v -65 h -240 -240 v 65 65 h 240 240 z m 933,5 c 10,-33 17,-62 17,-65 0,-3 -187,-5 -415,-5 h -415 v 65 65 h 398 399 z m 307,-5 v -65 h -80 -79 l -16,52 c -24,81 -27,78 80,78 h 95 z m 330,54 c 0,-6 -15,-35 -32,-65 l -33,-55 -70,3 -70,3 -3,63 -3,62 h 106 c 69,0 105,-4 105,-11 z M 2290,6670 v -60 h -95 -95 v 60 60 h 95 95 z m 300,0 v -60 h -90 -90 v 60 60 h 90 90 z m 480,0 30,-60 h -190 -190 v 60 60 h 160 160 z m 210,0 c 0,-56 -2,-60 -22,-60 -23,0 -30,11 -64,88 l -14,32 h 50 50 z m 600,0 v -60 h -240 -240 v 60 60 h 240 240 z m 980,0 v -60 h -430 -430 v 60 60 h 430 430 z m 370,0 v -60 h -125 -125 v 60 60 h 125 125 z M 2290,6415 v -65 h -389 -389 l -41,51 c -23,29 -41,58 -41,65 0,12 73,14 430,14 h 430 z m 300,0 v -65 h -90 -90 v 65 65 h 90 90 z m 607,8 c 15,-32 29,-61 31,-65 2,-5 -111,-8 -252,-8 h -256 v 65 65 h 225 225 z m 346,2 c 15,-31 27,-60 27,-65 0,-6 -36,-10 -85,-10 h -85 v 65 65 h 58 58 z m 337,-10 v -65 h -86 -85 l -25,55 c -13,31 -24,60 -24,65 0,6 45,10 110,10 h 110 z m 980,0 v -65 h -430 -430 v 65 65 h 430 430 z m 370,0 v -66 l -122,3 -123,3 -3,63 -3,62 h 126 125 z m 346,15 c 1,-84 5,-81 -115,-78 l -106,3 -3,63 -3,63 113,-3 113,-3 z m -3591,-272 -34,-63 h -127 -128 l -49,63 -49,62 h 211 210 z m 305,-3 v -65 h -93 c -52,0 -96,3 -100,6 -3,4 8,33 24,65 l 31,59 h 69 69 z m 300,0 v -66 l -87,3 -88,3 -3,63 -3,62 h 91 90 z m 740,5 c 16,-33 30,-62 30,-65 0,-10 -640,-5 -641,5 0,6 0,33 0,60 0,28 0,52 0,55 1,3 131,5 291,5 h 290 z m 335,8 c 14,-29 25,-59 25,-65 0,-10 -26,-13 -95,-13 h -95 l -30,60 c -16,33 -30,62 -30,65 0,3 45,5 100,5 h 101 z m 1195,-13 v -65 l -512,2 -513,3 -33,63 -33,62 h 545 546 z M 1880,5958 c 0,-7 -8,-25 -18,-40 l -18,-28 -22,30 c -31,41 -28,50 18,50 25,0 40,-5 40,-12 z m 710,-53 v -65 h -315 c -173,0 -315,2 -315,4 0,5 32,62 57,104 13,22 14,22 293,22 h 280 z m 1200,-3 29,-62 -552,2 -552,3 -1,50 c 0,28 1,56 4,63 3,10 113,12 524,10 l 520,-3 z"
       id="path82"
       inkscape:connector-curvature="0" />
  </g>
  <g
     id="layer112"
     style="fill:#ffffff;stroke:none"
     transform="translate(0,-5829.9967)">
    <path
       d="m 2,10423 3,-2918 633,-5 633,-5 23,-42 c 14,-23 27,-51 31,-63 6,-20 6,-20 -659,-20 H 0 v -60 -60 h 693 c 782,0 698,9 751,-82 l 27,-48 -733,-2 -733,-3 -3,-62 -3,-63 h 761 760 v -65 -65 H 760 -1 l 3,-62 3,-63 758,-3 757,-2 v -60 -60 l -757,-2 -758,-3 -3,-62 -3,-63 h 635 634 l 46,-58 c 25,-31 46,-60 46,-64 0,-5 -306,-8 -680,-8 H -1 l 3,-62 3,-63 725,-3 725,-3 43,-59 c 23,-32 42,-61 42,-64 0,-3 -346,-6 -770,-6 H 0 v -60 -60 h 818 818 l 47,-65 47,-65 -863,-2 L 5,5835 2,2918 0,0 h 3750 3750 l -2,2918 -3,2917 -1770,3 -1771,2 -27,55 c -15,31 -27,60 -27,65 0,7 634,10 1800,10 h 1800 v 60 60 l -752,2 -753,3 -3,62 -3,63 753,2 753,3 3,63 3,62 h -901 -900 v 65 65 h 900 901 l -3,63 -3,62 -897,3 -896,2 -4,60 -3,60 900,2 900,3 3,63 3,62 h -986 c -542,0 -985,2 -985,4 0,3 16,32 36,65 l 36,61 h 950 949 l -3,63 -3,62 -907,3 c -500,1 -908,5 -908,10 1,4 16,32 34,62 l 32,55 877,3 877,2 v 60 60 h -754 c -415,0 -757,4 -760,9 -3,4 13,17 36,27 24,10 67,35 98,54 l 55,35 660,5 660,5 3,2918 2,2917 H 3750 0 Z M 2591,7473 c 0,-16 1,-44 2,-63 l 2,-35 -566,-3 -565,-2 -36,65 -37,65 h 600 599 z m 687,-35 -3,-63 -276,-3 -277,-2 -3,37 c -2,21 -3,50 -1,66 l 3,27 h 280 280 z m 600,0 -3,-63 -237,-3 -238,-2 v 65 65 h 240 241 z m 769,2 c 11,-33 17,-62 15,-65 -3,-3 -153,-5 -334,-5 h -328 v 65 65 h 314 313 z m 473,-5 v -65 l -162,2 -163,3 -22,63 -22,62 h 184 185 z m 708,0 c -116,-65 -117,-65 -196,-65 h -80 l -69,65 -68,64 265,1 h 265 z m -515,-4 c 26,-25 47,-49 47,-53 0,-5 -26,-8 -57,-6 l -58,3 -3,58 c -4,68 -3,68 71,-2 z M 1611,7243 c 8,-119 2,-128 -38,-59 -17,30 -29,57 -25,60 8,9 62,7 63,-1 z m 979,-58 v -65 h -250 -250 v 58 c 0,32 3,62 7,65 3,4 116,7 250,7 h 243 z m 688,-2 3,-63 h -279 -279 l -6,46 c -10,91 -32,85 282,82 l 276,-3 z m 600,0 3,-63 h -241 -240 v 65 65 l 238,-2 237,-3 z m 853,2 c 10,-33 19,-61 19,-62 0,-2 -169,-3 -375,-3 h -375 v 65 65 l 356,-2 356,-3 z m 389,0 v -66 l -122,3 -121,3 -18,54 c -10,29 -16,57 -13,62 3,5 66,9 140,9 h 134 z m 480,55 c 0,-6 -14,-35 -31,-65 l -31,-55 h -149 -149 v 58 c 0,32 3,62 7,65 11,12 353,8 353,-3 z M 2590,6925 v -65 l -471,2 -471,3 v 55 c 0,30 0,58 1,63 1,4 212,7 471,7 h 470 z m 690,0 v -65 h -280 -280 v 65 65 h 280 280 z m 600,0 v -65 h -240 -240 v 65 65 h 240 240 z m 933,5 c 10,-33 17,-62 17,-65 0,-3 -187,-5 -415,-5 h -415 v 65 65 h 398 399 z m 307,-5 v -65 h -80 -79 l -16,52 c -24,81 -27,78 80,78 h 95 z m 330,54 c 0,-6 -15,-35 -32,-65 l -33,-55 -70,3 -70,3 -3,63 -3,62 h 106 c 69,0 105,-4 105,-11 z M 2290,6670 v -60 h -95 -95 v 60 60 h 95 95 z m 300,0 v -60 h -90 -90 v 60 60 h 90 90 z m 480,0 30,-60 h -190 -190 v 60 60 h 160 160 z m 210,0 c 0,-56 -2,-60 -22,-60 -23,0 -30,11 -64,88 l -14,32 h 50 50 z m 600,0 v -60 h -240 -240 v 60 60 h 240 240 z m 980,0 v -60 h -430 -430 v 60 60 h 430 430 z m 370,0 v -60 h -125 -125 v 60 60 h 125 125 z M 2290,6415 v -65 h -389 -389 l -41,51 c -23,29 -41,58 -41,65 0,12 73,14 430,14 h 430 z m 300,0 v -65 h -90 -90 v 65 65 h 90 90 z m 607,8 c 15,-32 29,-61 31,-65 2,-5 -111,-8 -252,-8 h -256 v 65 65 h 225 225 z m 346,2 c 15,-31 27,-60 27,-65 0,-6 -36,-10 -85,-10 h -85 v 65 65 h 58 58 z m 337,-10 v -65 h -86 -85 l -25,55 c -13,31 -24,60 -24,65 0,6 45,10 110,10 h 110 z m 980,0 v -65 h -430 -430 v 65 65 h 430 430 z m 370,0 v -66 l -122,3 -123,3 -3,63 -3,62 h 126 125 z m 346,15 c 1,-84 5,-81 -115,-78 l -106,3 -3,63 -3,63 113,-3 113,-3 z m -3591,-272 -34,-63 h -127 -128 l -49,63 -49,62 h 211 210 z m 305,-3 v -65 h -93 c -52,0 -96,3 -100,6 -3,4 8,33 24,65 l 31,59 h 69 69 z m 300,0 v -66 l -87,3 -88,3 -3,63 -3,62 h 91 90 z m 740,5 c 16,-33 30,-62 30,-65 0,-10 -640,-5 -641,5 0,6 0,33 0,60 0,28 0,52 0,55 1,3 131,5 291,5 h 290 z m 335,8 c 14,-29 25,-59 25,-65 0,-10 -26,-13 -95,-13 h -95 l -30,60 c -16,33 -30,62 -30,65 0,3 45,5 100,5 h 101 z m 1195,-13 v -65 l -512,2 -513,3 -33,63 -33,62 h 545 546 z M 1880,5958 c 0,-7 -8,-25 -18,-40 l -18,-28 -22,30 c -31,41 -28,50 18,50 25,0 40,-5 40,-12 z m 710,-53 v -65 h -315 c -173,0 -315,2 -315,4 0,5 32,62 57,104 13,22 14,22 293,22 h 280 z m 1200,-3 29,-62 -552,2 -552,3 -1,50 c 0,28 1,56 4,63 3,10 113,12 524,10 l 520,-3 z"
       id="path85"
       inkscape:connector-curvature="0" />
    <path
       style="opacity:0;fill:#ffffff;stroke:#000000;stroke-width:10px;stroke-linecap:butt;stroke-linejoin:miter;stroke-opacity:1"
       d="m 5,5835 c 7495,5 7495,5 7495,5 l -5,1665 H 5 Z"
       id="path3804"
       inkscape:connector-curvature="0"
       inkscape:export-xdpi="47.859238"
       inkscape:export-ydpi="47.859238" />
  </g>
</svg>
