<?xml version="1.0" encoding="UTF-8" standalone="no"?>
<!-- Created with Inkscape (http://www.inkscape.org/) -->

<svg
   xmlns:dc="http://purl.org/dc/elements/1.1/"
   xmlns:cc="http://creativecommons.org/ns#"
   xmlns:rdf="http://www.w3.org/1999/02/22-rdf-syntax-ns#"
   xmlns:svg="http://www.w3.org/2000/svg"
   xmlns="http://www.w3.org/2000/svg"
   xmlns:sodipodi="http://sodipodi.sourceforge.net/DTD/sodipodi-0.dtd"
   xmlns:inkscape="http://www.inkscape.org/namespaces/inkscape"
   width="146.84375mm"
   height="45.938282mm"
   viewBox="0 0 146.84375 45.938282"
   version="1.1"
   id="svg8"
   sodipodi:docname="sakuten.svg"
   inkscape:version="0.92.3 (2405546, 2018-03-11)">
  <defs
     id="defs2" />
  <sodipodi:namedview
     id="base"
     pagecolor="#ffffff"
     bordercolor="#666666"
     borderopacity="1.0"
     inkscape:pageopacity="0.0"
     inkscape:pageshadow="2"
     inkscape:zoom="1.7657658"
     inkscape:cx="277.5"
     inkscape:cy="86.812501"
     inkscape:document-units="mm"
     inkscape:current-layer="layer1"
     showgrid="false"
     inkscape:window-width="1440"
     inkscape:window-height="808"
     inkscape:window-x="0"
     inkscape:window-y="23"
     inkscape:window-maximized="0"
     fit-margin-top="0"
     fit-margin-left="0"
     fit-margin-right="0"
     fit-margin-bottom="0" />
  <metadata
     id="metadata5">
    <rdf:RDF>
      <cc:Work
         rdf:about="">
        <dc:format>image/svg+xml</dc:format>
        <dc:type
           rdf:resource="http://purl.org/dc/dcmitype/StillImage" />
        <dc:title></dc:title>
      </cc:Work>
    </rdf:RDF>
  </metadata>
  <g
     inkscape:label="Layer 1"
     inkscape:groupmode="layer"
     id="layer1"
     transform="translate(-11.762147,-103.90378)">
    <g
       aria-label="創作展"
       style="font-style:normal;font-weight:normal;font-size:50.79999924px;line-height:1.25;font-family:sans-serif;letter-spacing:0px;word-spacing:0px;fill:#000000;fill-opacity:1;stroke:none;stroke-width:0.26458332"
       id="text817">
      <path
         d="m 30.365662,104.49909 q 0.347266,0.34727 1.736328,0.74414 1.438672,0.39688 1.835547,0.94258 l -0.198437,1.24024 -0.694532,0.69453 q -0.496093,-0.0992 -0.892968,-0.0992 -1.934766,0 -2.877344,2.87734 l 1.934765,-0.69453 1.389063,0.34727 0.694531,-0.19844 q 0.744141,0.59531 2.579688,0.84336 1.885156,0.19844 2.629296,0.79375 0,0.69453 0.446485,0.89297 -0.992188,2.28203 -2.232422,2.28203 -1.289844,0 -4.067969,-1.38906 -2.976562,-1.48828 -4.316015,-1.63711 -2.778125,3.12539 -7.689453,9.525 -1.736328,2.72851 -3.472656,5.40742 -2.033985,2.97656 -4.167188,4.81211 l -1.190625,-0.59531 0.297656,-0.84336 -0.347265,-1.19063 q 0.446484,-1.73633 2.033984,-3.91914 1.339453,-1.83555 2.678906,-3.62148 -0.04961,0.34726 -0.248047,1.14101 -0.198437,0.79375 -0.198437,1.19063 0,0.24804 0.148828,0.49609 6.052344,-8.68164 11.013281,-16.47031 l -0.248047,-0.99219 q 0.446485,-0.64492 0.892969,-1.28984 0.496094,-0.69453 1.190625,-0.59531 z m 22.225,0.99219 q 0.148828,0.0496 2.232422,1.09141 2.133203,1.04179 2.33164,1.14101 0.595313,0.4961 0.595313,1.43868 0,0.94257 -1.736328,1.6371 -0.148829,1.83555 -0.892969,7.68946 -0.04961,0.29765 -0.297656,1.38906 -0.198438,0.79375 -0.198438,1.5875 0,8.53281 1.041797,17.06562 0.04961,0.39688 0.396875,2.13321 0.297656,1.48828 0.297656,2.03398 0,4.11758 -2.827734,7.14375 h -2.282031 q -2.182813,-4.81211 -3.919141,-6.79648 -0.744141,-0.84336 -2.033984,-2.72852 0.74414,0.0992 2.778125,0.64492 1.736328,0.4961 2.778125,0.4961 1.339453,0 1.339453,-2.03399 0,-3.02617 -0.297656,-9.07851 -0.248047,-6.10195 -0.248047,-9.12813 0,-1.73632 0.347265,-5.20898 0.396875,-3.52227 0.396875,-5.20899 0,-2.92695 -1.289843,-2.92695 -3.423047,3.42305 -3.522266,3.57188 -0.843359,1.19062 -1.637109,4.86172 l 0.248046,0.89296 -1.835546,12.50157 0.198437,0.74414 -1.339453,3.47265 -0.843359,0.14883 q -0.148828,-0.44648 -0.644922,-0.64492 -0.496094,-0.19844 -0.942578,-0.34727 l -1.240235,-2.77812 q 0.545703,-2.43086 1.091407,-4.91133 0.595312,-2.92695 0.595312,-4.96094 0,-0.84336 -0.694531,-1.88515 -0.644922,-1.09141 -0.694531,-1.53789 l 2.282031,0.44648 2.430859,1.53789 q 0.644922,-2.23242 1.240234,-4.41523 0.892969,-2.92696 1.736329,-4.06797 0.74414,-0.79375 1.488281,-1.63711 0.892969,-1.09141 0.892969,-1.93477 l 0.545703,-0.84336 0.79375,-0.19843 q 0.09922,-0.19844 0.248047,-0.34727 0.04961,0 0.694531,0 0.297656,0 0.396875,-0.0496 z m -23.8125,9.27695 q 1.141016,0.24805 2.282031,0.54571 1.190625,0.29765 1.686719,1.63711 -6.548437,3.57187 -9.47539,6.99492 l 10.021093,-5.15938 q 0.545703,0.44649 2.133203,0.79375 1.438672,0.34727 2.182813,1.09141 l 0.248047,1.24023 q -0.545704,0.94258 -1.339454,1.0418 -1.289843,2.43086 -1.53789,3.77031 -0.347266,2.23243 -0.396875,2.28204 -0.297656,1.28984 -1.091406,1.98437 -4.613672,-0.0496 -7.639844,2.08359 l -0.892969,3.42305 1.339453,1.43867 q 0.248047,-0.34726 1.190625,-0.89297 0.744141,-0.39687 1.438672,-0.79375 0.396875,-0.24804 1.240235,-1.19062 0.694531,-0.74414 1.438671,-1.0418 1.389063,-0.44648 3.274219,-0.44648 1.637109,0 4.514453,2.48047 l 0.148828,1.33945 -0.347265,0.74414 q -1.438672,0 -4.117578,2.67891 0.198437,0.29765 0.644921,0.29765 0.09922,0 0.347266,0 0.248047,-0.0496 0.347266,-0.0496 0.992187,0 0.992187,1.98438 -0.992187,0.44648 -4.117578,0.64492 -2.579687,0.19844 -3.571875,1.19062 -0.446484,-0.0496 -0.545703,-0.5457 -0.148828,-0.69453 -0.148828,-0.74414 l 0.446484,-1.48828 q 1.63711,-2.28203 3.819922,-5.45703 -3.869531,0.0992 -6.35,3.07578 0.347266,1.33945 0.942578,4.01836 l -0.496093,2.03398 -1.091407,0.14883 -1.5875,-2.23242 q 0,-3.57188 -0.892968,-4.86172 -2.282032,3.96875 -6.895703,5.45703 -1.339453,0.44649 -1.289844,0.44649 6.796484,-6.39961 8.880078,-16.3711 l -0.248047,-1.14101 0.248047,-0.94258 -1.240234,-0.84336 -2.480469,1.48828 -0.248047,-0.89297 0.496094,-1.48828 q 4.464843,-3.42305 6.796484,-7.24297 -0.396875,-0.39687 -0.892969,-0.79375 -0.446484,-0.44648 -0.446484,-0.94258 0.198437,-0.49609 0.992187,-0.5457 1.091407,-0.14883 1.289844,-0.24805 z m -3.373437,9.72344 q 0.297656,0.29766 0.892968,0.34727 0.595313,0.0496 1.091407,0.0992 l 5.010546,-1.33946 q 0,-0.24804 0.09922,-0.74414 0.148828,-0.5457 0.148828,-0.84336 0,-0.39687 -0.248047,-0.64492 -1.53789,0.24805 -3.571875,1.28985 -1.736328,0.94257 -3.423046,1.83554 z m 1.53789,3.32383 q 0,0.44648 -0.297656,1.33945 -0.297656,0.84336 -0.297656,1.28985 0,0.24804 0.148828,0.5457 0.694531,-0.64492 2.480469,-1.33945 1.785937,-0.74414 2.480468,-1.28985 v -2.08359 q -2.530078,0.0992 -4.514453,1.53789 z"
         style="font-style:normal;font-variant:normal;font-weight:normal;font-stretch:normal;font-family:HakusyuGyosyo_kk;-inkscape-font-specification:HakusyuGyosyo_kk;stroke-width:0.26458332"
         id="path885" />
      <path
         d="m 87.515661,104.10222 q 2.232422,0.94258 3.522266,3.77031 -0.04961,0.4961 -0.198438,1.38906 -0.09922,0.89297 -1.141015,3.22461 -0.942578,2.0836 -0.942578,3.02618 0,0.34726 0.09922,0.59531 1.438672,-0.69453 4.167188,-1.88516 1.53789,-0.84336 3.12539,-1.63711 1.785938,-0.89297 3.423047,-0.89297 5.308201,0 6.994921,1.83555 l -0.5457,1.88516 q -3.22461,0.49609 -6.449221,0.99218 -3.819922,0.64493 -6.250781,1.98438 l 0.79375,1.28984 q -0.396875,0.34727 -0.744141,1.38907 -0.297656,0.99218 -0.248046,1.5875 0.297656,5.06015 0.297656,5.06015 0,0.44649 -0.09922,1.38906 -0.09922,0.89297 -0.09922,1.33946 0,0.14883 0.09922,0.44648 0.09922,0.29766 0.09922,0.44649 0,0.5457 -0.148828,1.63711 -0.148828,1.0914 -0.148828,1.6371 0,2.67891 0.297656,7.24297 l -0.198438,0.54571 0.198438,1.78593 q -0.198438,0.39688 -0.396875,2.28203 -0.198438,1.93477 -0.942578,2.97657 -2.133203,-1.83555 -2.133203,-3.91914 0,0.24804 0.396875,-4.96094 0.148828,-2.72852 0.545703,-9.02891 0.297656,-5.01054 0.297656,-5.20898 0,-4.41524 -0.843359,-6.10195 l -1.091407,-0.24805 q -4.365625,1.88516 -6.250781,3.77031 l -0.892969,-0.39687 -1.289843,-2.92696 0.248047,-1.43867 q 1.885156,-2.77812 3.571875,-6.64765 1.438671,-3.47266 2.877343,-6.94532 l -0.545703,-1.0914 z m 17.561719,19.24844 -0.29766,1.28984 -1.28984,0.89297 q -1.33945,2.08359 -1.73633,2.92695 -0.84336,1.73633 -0.94258,3.27422 l 6.89571,4.06797 -0.0992,0.19844 0.0496,0.14882 q 0.14883,0.14883 0.59531,0.29766 v 1.24024 l -0.99219,0.59531 q -0.44648,0.0992 -0.84336,0.0992 -0.5457,0 -1.28984,-0.24805 l -2.03399,0.14883 q -1.98437,0.94258 -3.423042,0.89297 l -2.133203,-0.0496 -0.545703,-0.84336 -1.339453,0.0992 3.869531,-3.22461 q -0.545703,-1.09141 -1.041797,-2.13321 -0.496094,-1.0914 -0.496094,-2.43085 0,-2.18282 1.091406,-5.50665 l -2.033984,-0.24804 q 0.446484,-0.34727 1.240234,-1.93477 0.644922,-1.19062 1.537891,-1.19062 3.770314,0 5.258594,1.63711 z m -29.914453,-14.48594 0.892969,0.34726 h 3.323828 l 1.438672,1.73633 q -4.613672,4.61367 -11.310938,21.48086 l 2.778125,-1.0914 q 0.744141,0.24804 1.488282,0.5457 0.74414,0.29766 1.240234,0.94258 l 2.033984,-5.45703 q 0,3.02617 -0.74414,7.83828 -0.744141,5.15937 -1.736328,7.49101 l -1.835547,4.36563 q -0.744141,-0.39688 -1.190625,-1.5875 -0.644922,-1.5875 -0.84336,-1.88516 l 0.248047,-2.72851 1.091406,-1.48829 0.248047,-2.92695 -0.248047,-0.89297 q -3.571874,1.73633 -7.540624,6.15156 -1.438672,-3.57187 -1.438672,-4.36562 0,-0.5457 1.339453,-2.92695 0.843359,-1.53789 1.736328,-3.07578 2.976562,-5.70508 7.9375,-17.90899 l -1.5875,-1.0418 -0.198438,-1.0914 q 1.389063,-0.4961 2.877344,-2.43086 z"
         style="font-style:normal;font-variant:normal;font-weight:normal;font-stretch:normal;font-family:HakusyuGyosyo_kk;-inkscape-font-specification:HakusyuGyosyo_kk;stroke-width:0.26458332"
         id="path887" />
      <path
         d="m 149.87464,103.90378 4.46485,2.48047 0.24805,1.24023 -0.24805,0.89297 -3.32383,0.54571 q -0.5457,0.44648 -2.08359,1.19062 -1.53789,0.74414 -1.88516,1.14102 l 1.14102,2.23242 -0.24805,0.64492 q -0.69453,0.24805 -2.57969,0.39688 -1.68672,0.14882 -2.53008,0.5457 0.84336,0.29766 1.68672,0.59531 0.89297,0.29766 1.43867,0.99219 0.44649,-0.0992 0.94258,-0.0992 1.68672,0 3.91914,0.99219 l 0.29766,0.69453 -0.44649,0.89297 q -0.64492,0 -1.38906,0.34726 -0.99219,0.39688 -1.28984,0.4961 -1.24024,0.29765 -2.48047,0.5457 -1.24023,0.5457 -1.24023,1.98438 0,0.34726 0.0992,0.74414 l 4.16719,-0.74414 q 2.03399,0.39687 2.67891,0.5457 1.88515,0.49609 2.43086,0.89297 0.59531,0.39687 0.59531,1.14101 0,0.29766 -0.29766,1.09141 l -5.75468,-0.69453 q 0,0 -0.89297,0.14883 0.29765,0.34726 0.64492,0.39687 0.59531,0.0992 0.69453,0.14883 l 0.34727,0.64492 q -0.44649,0.69453 -1.48829,1.24024 -1.68671,0.84335 -1.73632,0.84335 -0.59532,0.69454 -1.78594,1.93477 -1.19063,1.24023 -1.19063,1.63711 0.4961,0.94258 2.23243,2.23242 1.53789,-0.94258 2.08359,-2.23242 -0.59531,1.0418 -0.59531,3.47266 1.68672,1.33945 6.15156,3.57187 4.06797,2.03398 5.95312,3.81992 v 0.99219 q 0,0 -0.0496,0.29766 -0.29766,0.24804 -0.84336,0.5457 -0.84336,-0.0992 -2.57969,-0.29766 -5.40742,-0.84336 -6.10195,-1.0914 -1.73633,-0.69453 -4.86172,-3.81993 -8.38399,9.07852 -12.45196,9.67383 l -1.14101,-0.44648 q -0.69453,-0.79375 -1.78594,-2.53008 1.19063,-2.82773 1.88516,-6.79648 0.14882,-0.64493 1.04179,-6.99493 0,-0.74414 -0.5457,-2.23242 -2.43086,0.54571 -5.35781,2.72852 l -0.69453,-1.14102 q -0.19844,0.29766 -4.26641,7.04453 -3.12539,5.15938 -4.41523,6.10196 l -1.24024,-0.24805 q -0.44648,-1.19063 -0.44648,-3.81992 0,-0.74414 1.63711,-2.67891 1.88515,-2.18281 2.18281,-2.97656 l -0.0992,1.19062 0.24805,0.59532 q 4.06797,-5.70508 8.33437,-16.61914 2.18281,-5.60586 2.18281,-5.55625 0,-0.29766 -0.49609,-0.74414 -0.44648,-0.4961 -0.49609,-0.84336 l 1.38906,-1.28985 q -0.69453,0 -1.5875,0.44649 -1.24023,0.5457 -1.53789,0.64492 l -0.49609,-0.89297 q 0.0992,-0.89297 0.0496,-2.77812 1.0914,-0.99219 3.17499,-0.99219 l 0.59532,0.39687 q 4.36562,-2.28203 8.13593,-3.32383 3.02618,-0.5457 8.88008,-2.1332 l 1.43867,0.34727 z m -19.99257,8.38399 2.87734,0.89296 0.0496,1.14102 0.89297,0.19844 q 1.24023,-0.79375 3.77031,-2.18281 2.03399,-0.94258 4.01836,-1.93477 2.48047,-1.33945 3.12539,-2.92695 l -3.42305,0.14882 q -3.91914,0.14883 -11.31093,4.66329 z m 2.43086,4.7625 -0.44649,-1.19063 q -0.44648,0.0496 -0.74414,0.64492 -0.39687,1.14102 -0.94258,2.92696 -1.24023,2.43086 -2.53008,5.15937 -0.14882,0.64492 -1.0914,2.6293 -0.74414,1.63711 -0.74414,2.6789 0,0.44649 0.24805,0.69454 0.79375,-0.89297 2.28203,-0.89297 l 0.0992,0.0496 q 0,0.19843 0.0496,0.29765 0.0992,0.0992 0.14883,0.0992 0.29766,0 3.02617,-1.48828 2.92696,-1.68672 3.47266,-1.88516 l -0.5457,-0.0992 q -0.24805,-0.29765 -0.54571,-1.53789 -0.24804,-1.0914 -0.59531,-1.28984 -0.29765,0 -0.84336,0.0496 -0.49609,0.0496 -0.74414,0.0496 -1.19062,0 -2.03398,-0.5457 0.99218,-0.29766 2.38125,-0.99219 1.68672,-0.84336 2.28203,-1.09141 0.0496,-0.34726 0.0496,-0.64492 0,-0.74414 -0.74414,-2.33164 l 4.01836,1.83555 4.06797,-1.38907 q 0.0496,-0.19843 0.0496,-0.34726 0,-0.74414 -1.88515,-1.83555 l 0.89297,-0.94258 q -0.59532,-0.0992 -1.14102,-0.0992 -1.24023,0 -3.7207,0.74415 -2.43086,0.74414 -3.77031,0.74414 z m 5.10976,5.60586 q -0.49609,0.44648 -0.74414,1.68671 -0.24805,1.5875 -0.39687,1.88516 1.78593,-0.19844 3.27421,-1.19062 1.73633,-1.19063 1.73633,-2.82774 0,-0.19844 -0.0496,-0.44648 z m 1.14102,5.20898 q 0.19843,0.99219 1.24023,2.08359 0.94258,0.89297 1.83555,1.78594 1.63711,-1.93476 2.53008,-3.7207 l -0.19844,-1.0418 0.64492,-0.74414 q -2.77812,0 -6.05234,1.63711 z m -4.41524,1.5875 0.44649,1.14102 q -0.0496,1.6371 -0.0992,3.32382 -0.0992,1.93477 -0.5457,3.22461 l 0.29765,0.89297 q 2.67891,-1.38906 5.20899,-3.81992 l -1.93477,-6.20117 q -2.67891,0.0992 -3.37344,1.43867 z m -0.44648,9.32656 v 0.29766 q 0.0496,0.74414 -0.39688,2.18281 -0.39687,1.43867 -0.39687,2.18281 0,0.34727 0.0992,0.74414 3.22461,-1.93476 4.7625,-2.97656 2.57968,-1.73633 4.36562,-3.42305 -0.19844,-0.34726 -1.83554,-2.43085 -2.57969,1.83554 -6.59805,3.42304 z"
         style="font-style:normal;font-variant:normal;font-weight:normal;font-stretch:normal;font-family:HakusyuGyosyo_kk;-inkscape-font-specification:HakusyuGyosyo_kk;stroke-width:0.26458332"
         id="path889" />
    </g>
  </g>
</svg>
