<?xml version="1.0" encoding="UTF-8" standalone="no"?>
<!-- Created with Inkscape (http://www.inkscape.org/) -->

<svg
   xmlns:dc="http://purl.org/dc/elements/1.1/"
   xmlns:cc="http://creativecommons.org/ns#"
   xmlns:rdf="http://www.w3.org/1999/02/22-rdf-syntax-ns#"
   xmlns:svg="http://www.w3.org/2000/svg"
   xmlns="http://www.w3.org/2000/svg"
   xmlns:sodipodi="http://sodipodi.sourceforge.net/DTD/sodipodi-0.dtd"
   xmlns:inkscape="http://www.inkscape.org/namespaces/inkscape"
   width="195.01445mm"
   height="46.186329mm"
   viewBox="0 0 195.01445 46.186329"
   version="1.1"
   id="svg8"
   sodipodi:docname="gyoji.svg"
   inkscape:version="0.92.3 (2405546, 2018-03-11)">
  <defs
     id="defs2" />
  <sodipodi:namedview
     id="base"
     pagecolor="#ffffff"
     bordercolor="#666666"
     borderopacity="1.0"
     inkscape:pageopacity="0.0"
     inkscape:pageshadow="2"
     inkscape:zoom="0.88288288"
     inkscape:cx="210.31579"
     inkscape:cy="55.798344"
     inkscape:document-units="mm"
     inkscape:current-layer="text937"
     showgrid="false"
     inkscape:window-width="1440"
     inkscape:window-height="808"
     inkscape:window-x="0"
     inkscape:window-y="23"
     inkscape:window-maximized="0"
     fit-margin-top="0"
     fit-margin-left="0"
     fit-margin-right="0"
     fit-margin-bottom="0" />
  <metadata
     id="metadata5">
    <rdf:RDF>
      <cc:Work
         rdf:about="">
        <dc:format>image/svg+xml</dc:format>
        <dc:type
           rdf:resource="http://purl.org/dc/dcmitype/StillImage" />
        <dc:title></dc:title>
      </cc:Work>
    </rdf:RDF>
  </metadata>
  <g
     inkscape:label="Layer 1"
     inkscape:groupmode="layer"
     id="layer1"
     transform="translate(-9.4375939,-95.769868)">
    <g
       aria-label="創作展"
       style="font-style:normal;font-weight:normal;font-size:50.79999924px;line-height:1.25;font-family:sans-serif;letter-spacing:0px;word-spacing:0px;fill:#000000;fill-opacity:1;stroke:none;stroke-width:0.26458332"
       id="text817">
      <g
         style="font-style:normal;font-weight:normal;font-size:50.79999924px;line-height:1.25;font-family:sans-serif;letter-spacing:0px;word-spacing:0px;fill:#000000;fill-opacity:1;stroke:none;stroke-width:0.07000434"
         id="text933" />
      <g
         aria-label="行事週間"
         style="font-style:normal;font-weight:normal;font-size:50.79999924px;line-height:1.25;font-family:sans-serif;letter-spacing:0px;word-spacing:0px;fill:#000000;fill-opacity:1;stroke:none;stroke-width:0.07000434"
         id="text937">
        <path
           d="m 21.343844,96.960493 q 0.496093,0.644921 1.934765,0.79375 1.488282,0.148828 2.033985,0.892968 0.297656,0.992188 0.297656,1.141016 0,0.446483 -0.595313,0.892973 -0.446484,0.19843 -1.289843,0.69453 -0.644922,0.74414 -1.984375,2.03398 -0.84336,0.49609 -2.282032,1.53789 -0.545703,0.74414 -1.736328,2.1332 0.09922,0.0992 0.297657,0.0992 0.248046,0 0.843359,-0.29765 0.595312,-0.29766 0.892969,-0.29766 0.198437,0 0.595312,0.0992 0.446485,0.0992 0.595313,0.0992 1.289843,0.14883 1.686718,0.34726 0.84336,0.34727 1.041797,1.28985 -3.12539,3.81992 -6.30039,11.90625 -0.496094,1.24023 -1.537891,3.62148 0.992188,0.19844 1.984375,0.44649 1.041797,0.19843 1.736328,0.84336 0.694531,-1.19063 2.133203,-3.6711 0.446485,2.38125 0.446485,2.38125 0,2.13321 -1.339453,5.50664 -1.141016,2.6293 -2.232422,5.30821 -0.347266,1.19062 -1.091406,3.57187 -0.347266,0.84336 -1.289844,1.0418 l -1.5875,-1.83555 -0.198438,-2.82773 q 1.934766,-2.82774 1.934766,-6.8461 0,-0.59531 -0.04961,-1.19062 -2.629297,0.89297 -3.323829,2.03398 -0.496093,0.79375 -0.992187,1.5875 -0.694531,0.94258 -1.389063,1.0418 l -1.0914057,-2.23242 -0.049609,-1.14102 q 3.9687501,-5.55625 9.0785151,-18.65312 -1.438671,0.0992 -2.827734,0.19843 -1.934766,0.24805 -2.480469,1.0418 l -0.644922,-1.48828 q 0.942579,-1.48828 3.472657,-4.51445 2.33164,-2.87735 3.373437,-4.564066 l -1.438672,-0.595312 q 1.339453,-1.934766 3.373438,-2.430859 z m 18.851562,0 q 0.446484,0.396875 1.637109,0.446484 1.438672,0.04961 1.885156,0.297656 0.892969,0.396875 0.892969,1.835547 0,0.347266 -0.09922,0.74414 -0.694531,0.49609 -1.984374,1.53789 -0.347266,0.24805 -1.240235,1.5875 -0.396875,0.49609 -2.38125,2.23242 -0.79375,0.64492 -3.373437,2.03399 -2.083594,1.14101 -2.926953,2.28203 l 4.514453,-6.10195 -3.869531,-2.57969 q 1.637109,-0.4961 3.621484,-1.885158 1.686719,-1.240234 3.323828,-2.430859 z m 6.647656,12.799217 q 1.885156,0.44649 3.770313,0.89297 1.934765,0.69453 2.282031,2.77812 l -0.446485,1.14102 q -1.934765,0.34727 -2.282031,0.34727 -0.892969,0 -2.629297,-0.74414 -1.736328,-0.74415 -2.579687,-0.74415 -0.347266,0 -4.067969,0.99219 l 2.926953,2.13321 q -0.347265,3.62148 -0.347265,4.61367 0,2.97656 1.240234,8.83047 l -0.198438,0.84336 q 0.694532,5.40742 0.694532,5.40742 0,2.03398 -2.728516,4.56406 l -2.976562,0.89297 q -0.595313,-0.24805 -1.240235,-0.84336 -0.942578,-0.79375 -1.141015,-0.89297 -1.041797,-0.39687 -2.877344,-1.5875 -1.041797,-1.43867 -3.323828,-3.67109 l -0.942578,-2.48047 q 2.33164,1.68672 7.590234,3.12539 0.347266,-0.0496 1.041797,-0.4961 0.694531,-0.44648 0.892969,-0.44648 0.198437,0 0.446484,0.14883 0.148828,-0.44649 0.09922,-0.89297 0.892969,-1.14102 0.992187,-3.42305 0.09922,-2.33164 0.545703,-3.12539 -0.496093,-0.69453 -0.496093,-1.38906 0,-0.34727 0.248047,-0.49609 l -0.198438,-3.32383 q 0,0 0.198438,-0.79375 -0.09922,-1.38906 -0.694532,-4.11758 -0.694531,0 -1.53789,-0.84336 -0.84336,-0.84336 -1.289844,-0.89297 -1.537891,0.64492 -4.613672,1.93477 -1.686719,0.49609 -4.861719,1.73633 -1.686718,0.89296 -2.133203,2.38125 l -1.141015,-2.67891 q 0.545703,-2.87734 2.430859,-4.01836 0.347266,0.19844 0.396875,0.79375 0.148828,0.74414 0.297656,0.94258 2.033985,-0.44649 4.712891,-1.68672 2.232422,-1.0418 4.514453,-2.08359 2.629297,-1.14102 9.425781,-2.82774 z"
           style="font-style:normal;font-variant:normal;font-weight:normal;font-stretch:normal;font-family:HakusyuGyosyo_kk;-inkscape-font-specification:HakusyuGyosyo_kk;stroke-width:0.07000434"
           id="path940" />
        <path
           d="m 79.982124,95.769868 2.976563,0.694531 q 0.496093,0.446484 0.992187,0.992187 0.545703,0.496094 0.595312,1.041797 l -0.694531,0.396875 -0.248047,1.885152 0.496094,0.19844 q 6.647656,-0.94258 6.647656,-0.94258 4.266406,0 5.903516,0.29766 0.347265,0.0992 1.488281,0.64492 0.992188,0.44649 2.033985,0.94258 1.09141,0.49609 1.48828,1.38906 -0.69453,1.93477 -2.926952,1.93477 -1.934766,0 -4.067969,-0.64492 -2.926953,-0.89297 -3.819922,-1.0418 -1.289844,-0.19844 -4.018359,-0.19844 -2.778125,0 -3.671094,0.99219 l 0.248047,0.99219 6.250781,-0.69453 q 0.347266,-0.0496 1.934766,0.69453 1.5875,0.69453 1.885156,0.99218 l 0.992187,0.89297 v 0.59532 l -1.190625,0.39687 q -0.644921,0.74414 -1.240234,0.84336 -0.744141,0.0992 -0.843359,0.14883 -0.248047,0.29765 -0.79375,0.74414 -0.446485,0.24805 -1.289844,0.69453 -0.347266,0.29766 -0.744141,0.59531 -0.347265,0.29766 -0.843359,0.29766 -0.198438,0 -0.396875,0.14883 -0.148828,0.14882 -0.198438,0.34726 -2.232421,-0.14883 -2.38125,-0.14883 -1.389062,0 -1.885156,0.39688 v 1.83555 q 0.84336,0.0992 1.785938,0.0992 0.79375,0 2.38125,-0.14882 1.637109,-0.19844 2.430859,-0.19844 0.694531,0 2.083594,0.19844 1.438672,0.19843 2.133203,0.19843 1.5875,0 4.663281,1.73633 2.033985,1.14102 2.877345,3.12539 l -1.339454,0.69453 -0.446485,1.14102 q 2.182809,0.84336 3.919139,2.92695 l -0.59531,0.89297 q -0.19844,0 -3.22461,0 -0.04961,0 -2.530078,0.64492 0.04961,0.0992 0.04961,0.19844 0,0.24805 -0.446484,0.59531 -0.595313,0.44649 -0.644922,0.59532 -0.297656,0.44648 -0.396875,1.24023 -0.09922,0.79375 -0.347266,1.0418 -0.396875,0.39687 -1.53789,0.39687 -1.637109,0 -3.323828,-0.49609 -1.63711,0.0992 -3.274219,0.19844 -2.133203,0.0992 -3.026172,0.74414 0.198438,2.92695 0.198438,2.92695 0,0.29766 -0.09922,0.84336 -0.09922,0.5457 -0.09922,0.84336 0,0.39687 0.09922,1.19062 0.09922,0.84336 0.09922,1.24024 0,0 -0.446485,2.48047 -0.148828,0.0496 -0.644921,0.64492 -0.496094,0.64492 -0.942579,0.64492 -0.198437,0.39687 -0.843359,0.5457 -0.843359,0.24805 -1.041797,0.39688 -2.33164,-0.79375 -2.083594,-2.23242 -0.198437,-0.54571 -1.041796,-1.09141 -0.79375,-0.5457 -0.892969,-0.94258 l -4.365625,-2.62929 q 4.117578,0.19843 4.316016,0.19843 2.430859,0 3.274218,-0.94258 0.892969,-0.94257 0.892969,-3.42304 l -0.248047,-0.4961 q -4.514453,0.54571 -10.169922,3.175 -0.198437,-0.24804 -0.248047,-1.14101 -0.09922,-0.69453 -0.446484,-0.79375 0,-0.89297 0.744141,-1.28985 0.843359,-0.19843 2.480468,-0.79375 2.133204,-0.89296 4.216797,-1.78593 2.877344,-1.28985 3.869531,-2.0836 l -0.198437,-1.28984 -1.041797,-0.49609 q -2.530078,0.5457 -7.491015,1.73632 -2.38125,0.79375 -7.242969,2.13321 l -1.5875,-0.94258 q 1.339453,-0.84336 3.472656,-1.43867 3.522266,-1.0418 3.621484,-1.09141 1.785938,-0.79375 5.506641,-2.03398 1.141016,-0.19844 2.282031,-0.39688 1.141016,-0.24805 2.232422,-0.99219 -0.09922,-0.99218 -0.545703,-3.02617 -2.182813,0 -5.55625,1.38906 -4.266406,1.78594 -5.457031,2.0836 l -0.545703,-1.24024 0.198437,-1.14101 1.488281,-0.64492 0.446485,0.34726 9.971484,-3.37344 0.148828,-0.74414 -0.496094,-1.48828 -3.522265,0.64492 q -1.537891,0.29766 -2.778125,-0.64492 -0.347266,0.4961 -1.488281,1.33946 l -0.942578,-3.37344 q 0.843359,-0.34727 1.041796,-1.53789 0.248047,-1.19063 0.496094,-1.38906 l 0.644922,1.14101 q 1.637109,-1.14101 7.044531,-2.82773 v -1.33946 q -2.133203,0.24805 -5.407422,0.79375 -0.942578,0.14883 -2.579687,0.74414 -1.785938,0.64493 -2.579688,0.79375 -1.389062,0.24805 -2.728515,0.4961 -1.438672,0.39687 -2.38125,1.33945 -1.289844,-0.5457 -1.389063,-1.83555 -0.09922,-1.33945 -0.396875,-1.48828 0.744141,-1.68672 1.934766,-1.78593 l 0.297656,1.68671 15.527734,-3.91914 q 0.396875,-0.64492 0.396875,-1.38906 0,0.39688 -0.04961,-0.843358 -0.396875,-0.297656 -1.835547,-0.496094 -1.190625,-0.148828 -1.53789,-0.843359 0.347265,-0.198438 0.545703,-0.644922 0.198437,-0.446484 0.347265,-0.892969 z m 3.175,11.807032 q -0.545703,0.29765 -0.545703,0.94258 0,1.78593 0.04961,1.33945 h 0.347266 q 2.579687,0.0992 4.117578,-2.23242 l -1.339453,-0.39688 z m -9.376172,2.92695 -0.446484,1.78594 q 3.96875,-0.5457 6.647656,-1.5875 l -0.297656,-2.6293 q -2.778125,0.24805 -5.903516,2.43086 z m 9.028906,6.49883 -0.148828,3.47266 0.595313,0.14882 q 1.637109,-0.69453 4.613672,-0.69453 0.347265,0 0.992187,-0.0496 0.694531,-0.0992 1.041797,-0.0992 2.033984,0 3.12539,0.54571 l -0.198437,-2.0836 q -1.091406,-0.5457 -2.133203,-1.0914 -1.389063,-0.64492 -2.232422,-0.64492 -0.198437,0 -0.843359,0.0992 0,0 -2.778125,0 -1.488281,0 -2.033985,0.39688 z m 0.595313,6.25078 v 1.14102 l 5.407422,-1.38907 q -0.595313,-0.49609 -1.289844,-0.49609 -0.892969,-0.0496 -1.041797,-0.14883 -2.182812,0 -3.075781,0.89297 z m -0.148828,2.82774 0.595312,1.33945 6.895703,-1.33945 q 0.297657,0.0496 0.892969,0.0496 l 0.198438,-0.19843 q 0.09922,-0.24805 0.04961,-0.4961 0.198437,-0.34726 0.496094,-1.28984 -6.697266,0.69453 -9.128125,1.93477 z m -8.780859,3.52226 5.953124,-1.93476 0.347266,-0.84336 q -1.835547,0 -3.373437,0.94257 -1.488282,0.89297 -2.926953,1.83555 z"
           style="font-style:normal;font-variant:normal;font-weight:normal;font-stretch:normal;font-family:HakusyuGyosyo_kk;-inkscape-font-specification:HakusyuGyosyo_kk;stroke-width:0.07000434"
           id="path942" />
        <path
           d="m 142.09306,97.95268 q 4.91133,0 6.39961,3.07578 -0.14883,0.5457 -1.0418,2.03399 -0.79375,1.24023 -0.79375,2.08359 0,10.12031 1.19063,16.27187 0.24804,0.79375 0.49609,2.28204 0.0496,1.0914 0.14883,3.32382 -0.69453,2.28203 -1.38906,4.56407 -1.24024,3.02617 -2.92696,3.02617 -0.84336,0 -1.43867,-0.59531 -0.39687,-0.4961 -1.33945,-1.24024 -1.0418,-0.49609 -2.67891,-1.73633 l -0.0496,-1.04179 -2.03398,-2.48047 q 4.91133,0.49609 4.91133,0.49609 0,0 2.72851,-0.29766 0.64492,-1.6371 0.84336,-4.31601 0,-0.14883 0.0992,-0.84336 0.0992,-0.5457 0.0992,-0.79375 l -0.5457,-6.8957 -5.90352,-0.54571 q -2.87734,-0.24804 -7.24297,2.03399 -1.28984,0.69453 -6.54843,4.06797 -0.0496,0.99218 -0.24805,2.92695 -0.24805,0.69453 -0.59531,2.03398 -0.0992,1.63711 -0.64493,4.71289 -0.29765,1.0418 -1.24023,1.78594 -0.59531,-0.74414 -0.79375,-2.08359 -0.24805,-1.53789 -0.5457,-2.0836 0.39687,-2.38125 0.69453,-7.54062 0.34726,-5.55625 0.69453,-8.03672 0.64492,-4.41523 2.03398,-7.14375 l 0.84336,2.53008 q 4.36563,-3.91914 8.33438,-6.39961 1.73633,-1.09141 4.11758,-2.033984 2.77812,-1.141016 4.36562,-1.141016 z m -6.99492,4.66328 q 0.19844,-0.0496 0.24805,0 0.64492,0.0496 1.19062,0.44649 0.69453,0.5457 0.99219,0.64492 l -0.24805,1.48828 h 1.19063 l 1.98437,0.84336 q -0.34726,1.28984 -1.53789,1.83554 -1.14101,0.4961 -2.28203,0.94258 l -1.14102,3.175 q 3.57188,-0.99218 5.85391,-0.99218 0.44648,0 1.28984,0.0496 0.89297,0.0496 1.33946,0.0496 0.34726,0 0.64492,-0.0992 0.0496,-0.34727 0.0496,-0.69454 0,-0.89296 -0.14883,-2.6789 -0.0992,-1.83555 -0.0992,-2.77813 0,-4.11758 -3.7207,-4.11758 -1.33945,0 -2.97656,0.4961 -1.93477,0.5457 -2.6293,1.38906 z m -20.6375,-1.43867 q 1.5875,0.5457 3.175,1.09141 2.18281,0.89296 2.18281,2.38125 0,0.5457 -0.64492,1.14101 -0.64492,0.5457 -0.74414,0.79375 -0.69453,0.14883 -1.43867,0.39688 -0.74414,0.19843 -1.0418,0.74414 l -0.84336,-0.0992 -1.78594,2.43086 q 0.74414,-1.28985 1.33946,-5.01055 -0.0992,-0.49609 -0.74414,-1.83555 -0.64493,-1.33945 -0.64493,-1.78593 z m 10.86445,8.92969 0.24805,6.74687 q 2.72851,-0.64492 6.8957,-6.10195 l -0.74414,-0.34727 -1.5875,0.14883 q -0.44648,0.0496 -1.0418,-0.24805 -0.5457,-0.29765 -0.69453,-0.69453 l 4.86172,-2.38125 q 0.0992,-0.49609 0.0992,-0.89297 0,-1.78593 -1.28984,-2.18281 -4.41524,2.77813 -6.74688,5.95313 z m 7.49102,1.43867 -2.13321,2.6293 q 0.94258,-0.39688 2.82774,-1.14102 -0.0992,-0.49609 -0.44649,-1.38906 z m -20.6375,2.03398 q 0.64492,0.94258 2.62929,1.83555 2.23243,0.99219 2.92696,1.68672 0,2.03398 -1.28985,2.38125 -1.0914,2.18281 -1.0914,5.55625 0,1.14101 1.63711,3.07578 1.73633,2.1332 1.93476,3.47266 -0.39687,0.14882 -1.19062,0.94257 -0.79375,0.79375 -1.53789,0.79375 l -2.18282,-1.14101 1.24024,-1.33945 q -0.44649,-0.94258 -1.28984,-2.87735 -0.79375,-1.93476 -0.89297,-3.42305 0,-0.0496 0,-3.52226 0,-2.87734 -1.33946,-6.44922 z m 26.19375,2.87735 q 0.39687,0 1.48828,0.49609 1.09141,0.49609 1.48828,0.59531 l 0.94258,0.89297 -0.0496,1.28985 -0.89297,1.48828 -0.89297,0.0992 -1.48828,1.5875 1.78594,1.14101 -0.29766,1.78594 q -0.94258,0.44648 -2.53008,0.74414 -1.53789,0.24805 -1.98437,0.49609 l -0.89297,-0.19843 -0.84336,0.24804 -0.94258,-0.29765 -0.39687,-1.09141 q 0.29765,-1.14102 2.03398,-2.72852 1.73633,-1.63711 2.03399,-2.92695 -0.44649,-0.14883 -0.94258,-0.29766 -3.72071,0 -5.85391,2.53008 0.74414,0.29766 0.84336,1.5875 0.0992,1.5875 0.29766,1.93477 l -0.14883,0.74414 -1.78594,0.69453 q -1.53789,-1.53789 -1.53789,-3.22461 0,-0.14883 0.0496,-0.44648 0.0992,-0.34727 0.0992,-0.4961 0,0 -0.39688,-2.6789 l 1.78594,1.0914 q 1.73633,-1.48828 4.31602,-3.07578 3.27422,-1.98437 4.71289,-1.98437 z m -27.28516,19.05 q 1.38906,-0.0496 4.56406,-0.59532 2.82774,-0.44648 4.61368,-0.44648 0.44648,0 1.38906,-0.0496 0.99219,-0.0496 1.43867,-0.0496 3.07578,0 9.17773,0.74414 6.15157,0.74414 9.22735,0.74414 1.0418,0 3.07578,-0.14883 2.03398,-0.14882 3.02617,-0.14882 0.14883,0 2.6293,0.24804 1.48828,0 2.97656,0.0496 1.78594,0.24805 2.33164,1.43867 -0.0992,0.44649 -0.94258,0.59532 l -0.24804,0.14882 -0.24805,0.89297 q -3.86953,1.93477 -8.68164,1.93477 -1.63711,0 -9.87227,-2.1332 -10.02109,-2.57969 -16.07343,-2.57969 -3.37344,0 -7.44141,1.73633 -0.89297,0.24804 -2.33164,0.94257 -0.14883,-0.5457 -0.34727,-1.19062 0,-3.02617 1.43868,-3.62148 z"
           style="font-style:normal;font-variant:normal;font-weight:normal;font-stretch:normal;font-family:HakusyuGyosyo_kk;-inkscape-font-specification:HakusyuGyosyo_kk;stroke-width:0.07000434"
           id="path944" />
        <path
           d="m 196.41532,97.258149 q 2.28203,0 4.66328,0.942578 2.87735,1.141015 3.37344,2.976563 l -0.69453,2.03398 q -1.5875,0 -1.83555,0.24805 -0.24804,0.19844 -0.74414,1.68672 -0.19844,0.5457 -0.19844,0.64492 0.14883,1.24024 0.14883,1.24024 0,0.29765 -0.0992,0.84335 -0.0496,0.54571 -0.0496,0.84336 0,0 0.44649,6.30039 -0.0496,0.39688 -0.0992,1.09141 l 1.83555,14.73399 q 0.14882,1.28984 -0.34727,3.67109 -0.5457,2.57969 -1.33945,3.32383 -0.74414,0.74414 -1.48828,1.43867 -0.74414,0.89297 -0.84336,1.78594 -1.19063,0.19843 -1.19063,0.89296 l -1.24023,-0.49609 q -1.53789,-2.28203 -2.77813,-6.05234 -0.19843,-0.59531 -0.64492,-1.73633 0.24805,0.24805 0.99219,0.39687 0.24805,-0.0496 0.39687,-0.14882 l -0.39687,-1.24024 q 0.49609,0.34727 1.73633,1.53789 0.99218,0.94258 2.1332,1.43867 1.73633,-1.28984 2.03398,-4.61367 0,-0.19843 0.0992,-0.74414 0.0992,-0.5457 0.0992,-0.79375 0,-1.93476 -0.5457,-4.91133 -0.79375,-4.61367 -0.84336,-4.91132 -0.19844,-3.22461 -1.19063,-9.57461 -0.64492,0.84336 -1.88515,1.14101 -1.19063,0.24805 -2.33164,0.4961 -1.09141,0.19843 -3.86953,1.93476 l -0.19844,-0.49609 -2.03399,0.44648 q -0.29765,-1.53789 -0.29765,-1.83554 0,-0.74415 0.5457,-1.24024 h 0.99219 q 2.08359,-1.73633 2.87734,-3.86953 l -2.72851,-1.24023 0.39687,-1.09141 q 3.7207,-1.5875 5.15938,-1.5875 0.69453,0 1.53789,0.19844 0.49609,0.59531 0.49609,1.93476 l -0.69453,0.89297 q -1.38906,0.24805 -2.97656,1.78594 -1.24024,1.24023 -2.48047,2.53008 0.84336,-0.0992 2.6293,-0.99219 1.78593,-0.94258 1.98437,-0.94258 l 2.87734,0.0992 v -8.433594 q -1.14101,-0.644922 -2.48046,-0.644922 -1.0418,0 -2.97657,0.595313 -1.93476,0.595313 -2.92695,0.595313 -0.29766,0 -0.5457,-0.0496 3.96875,-3.075781 7.54062,-3.075781 z m -18.25625,1.885156 q 1.5875,0 2.23242,0.892965 0.0496,0.29766 0.0496,0.59532 0,0.64492 -0.59531,1.63711 -0.59531,0.99218 -0.59531,1.14101 l -0.64492,6.64766 1.98437,-0.99219 q -1.0418,3.07578 -3.57187,5.01055 -0.54571,0.44648 -4.46485,2.6789 -2.48047,1.43867 -3.22461,3.07578 l -1.38906,-0.89296 q -0.24805,0.59531 -0.24805,3.27421 0,0.24805 -0.49609,4.41524 -0.89297,7.09414 -2.87734,11.16211 -0.89297,-0.0992 -1.5875,-0.99219 -0.64493,-0.89297 -0.44649,-1.78594 l 3.52227,-16.17265 q 0,-0.0496 -0.0496,-0.54571 -0.0496,-0.5457 -0.0496,-0.59531 0,0 0.39687,-3.12539 0.0496,-0.39687 -0.0496,-1.33945 -0.0992,-0.99219 -0.0992,-1.28985 -0.0496,-2.57968 -0.19844,-3.57187 -0.29766,-1.93477 -1.19063,-3.32383 1.68672,1.0418 2.23243,4.91133 0.74414,1.24023 0.74414,5.95312 1.19062,-0.29765 1.73632,-1.43867 0.69454,-1.43867 1.09141,-1.73633 l -0.24805,2.53008 q 1.48828,-0.84336 4.7625,-2.03398 -0.29765,-1.53789 -0.29765,-1.53789 0,0 0.29765,-3.52227 -0.29765,-0.29766 -0.5457,-0.29766 -0.69453,0 -1.88516,1.48829 0,-0.84336 -0.84336,-0.94258 -0.69453,0 -1.43867,0 -0.49609,-0.0992 -0.69453,-0.39688 1.28985,-0.94258 2.57969,-1.88515 1.53789,-0.99219 2.97656,-1.09141 l 0.19844,-2.77812 -0.89297,-0.39688 q -1.43867,0.34727 -2.03398,0.34727 -0.64493,0 -0.89297,-0.39688 2.38125,-2.678905 6.74687,-2.678905 z m 8.33438,6.349995 q 0.34726,3.1254 0.34726,3.1254 0,0 -0.34726,1.43867 l 0.0992,0.69453 q -0.0992,0.24805 -0.34727,1.43867 -0.14883,0.89297 -0.64492,1.28984 l -0.89297,-0.69453 q -0.19844,-0.79375 -0.19844,-1.53789 0,-0.84336 0.34727,-2.48047 0.39687,-1.63711 0.39687,-2.48047 v -1.28984 q 0,0 -0.34726,-4.06797 0.64492,0.99219 1.5875,3.27422 -0.0496,0.44649 0,1.28984 z m 1.43867,11.16211 q 0.59531,0 1.53789,0.69454 0.94258,0.64492 1.14101,1.24023 0.24805,0.59531 0.69454,1.73633 -0.84336,2.43086 -1.09141,7.09414 -0.19844,3.67109 -0.34727,7.3918 l -0.69453,0.99218 -0.74414,0.34727 q -0.24804,-0.59531 -0.74414,-0.59531 -0.14883,0 -0.39687,0.0992 l -1.24024,-2.33164 q -4.66328,0.14883 -7.24297,1.48829 -0.24804,-0.24805 -1.19062,-0.39688 -0.89297,-0.19844 -1.24024,-0.74414 -0.19843,-1.93477 -0.19843,-1.93477 0,-7.04453 1.5875,-10.51718 l 0.89297,1.28984 -0.24805,0.69453 0.24805,0.64492 q 3.81992,-7.19336 9.27695,-7.19336 z m -9.27695,9.72344 q 3.81992,-2.72851 5.90351,-2.72851 0.29766,0 0.59531,0.0496 l 0.54571,0.99218 q -0.99219,1.0418 -1.93477,2.03399 -1.14101,1.28984 -1.53789,2.33164 l 1.09141,-2.43086 q -1.0418,0 -2.48047,0.34726 -2.1332,0.4961 -2.43086,0.54571 0.24805,1.53789 0.24805,1.53789 0,0.59531 -0.14883,1.83554 -0.14883,1.24024 -0.14883,1.83555 0,0.69453 0.49609,0.69453 0.0992,-0.14883 0.39688,-0.44648 l 0.14883,0.0992 q 0.0496,0.19843 0.0992,0.39687 0.44648,-0.14883 3.32382,-1.48828 2.03399,-0.99219 3.42305,-1.14101 -0.0496,-6.44922 0.0992,-8.9793 -0.0496,-0.19844 -0.14883,-1.43867 -0.0496,-0.99219 -0.49609,-1.33946 -0.79375,-0.14882 -0.79375,-0.14882 -0.79375,0 -1.38907,0.19843 -0.89296,0.34727 -2.48046,2.03399 -1.53789,1.63711 -2.0836,2.6789 -0.39687,0.69453 -0.39687,1.5875 0,0.44649 0.0992,0.94258 z"
           style="font-style:normal;font-variant:normal;font-weight:normal;font-stretch:normal;font-family:HakusyuGyosyo_kk;-inkscape-font-specification:HakusyuGyosyo_kk;stroke-width:0.07000434"
           id="path946" />
      </g>
    </g>
  </g>
</svg>
